<?xml version="1.0" encoding="utf-8"?>
<!-- Generator: Adobe Illustrator 24.3.0, SVG Export Plug-In . SVG Version: 6.00 Build 0)  -->
<svg version="1.1" id="Layer_1" xmlns="http://www.w3.org/2000/svg" xmlns:xlink="http://www.w3.org/1999/xlink" x="0px" y="0px"
	 viewBox="0 0 375 375" style="enable-background:new 0 0 375 375;" xml:space="preserve">
<style type="text/css">
	.st0{fill:#FFFFFF;}
</style>
<g id="surface1">
	<path class="st0" d="M192.8,187.5l-2.7-4.7h-5.3l-2.7,4.7l2.7,4.7h5.3L192.8,187.5z"/>
	<path class="st0" d="M205.8,187.5l-2.4-4.3h-5.1l-2.4,4.3l2.4,4.3h5.1L205.8,187.5z"/>
	<path class="st0" d="M199.1,199.1l-2.4-4.3h-5.1l-2.4,4.3l2.4,4.3h5.1L199.1,199.1z"/>
	<path class="st0" d="M185.7,199.1l-2.4-4.3h-5.1l-2.4,4.3l2.4,4.3h5.1L185.7,199.1z"/>
	<path class="st0" d="M179,187.5l-2.4-4.3h-5.1l-2.4,4.3l2.4,4.3h5.1L179,187.5z"/>
	<path class="st0" d="M185.7,175.9l-2.4-4.3h-5.1l-2.4,4.3l2.4,4.3h5.1L185.7,175.9z"/>
	<path class="st0" d="M199.1,175.9l-2.4-4.3h-5.1l-2.4,4.3l2.4,4.3h5.1L199.1,175.9z"/>
	<path class="st0" d="M205.8,187.5l-2.4-4.3h-5.1l-2.4,4.3l2.4,4.3h5.1L205.8,187.5z"/>
	<path class="st0" d="M218.9,187.5l-2.4-4h-4.6l-2.4,4l2.4,4h4.6L218.9,187.5z"/>
	<path class="st0" d="M215.2,200.9l-2.4-4h-4.5l-2.4,4l2.4,4h4.5L215.2,200.9z"/>
	<path class="st0" d="M205.5,210.6l-2.4-4h-4.6l-2.4,4l2.4,4h4.6L205.5,210.6z"/>
	<path class="st0" d="M192.1,214.2l-2.4-4h-4.6l-2.4,4l2.4,4h4.6L192.1,214.2z"/>
	<path class="st0" d="M178.7,210.6l-2.4-4h-4.6l-2.4,4l2.4,4h4.6L178.7,210.6z"/>
	<path class="st0" d="M169,200.9l-2.4-4H162l-2.4,4l2.4,4h4.6L169,200.9z"/>
	<path class="st0" d="M165.4,187.5l-2.4-4h-4.5l-2.4,4l2.4,4h4.5L165.4,187.5z"/>
	<path class="st0" d="M169,174.1l-2.4-4H162l-2.4,4l2.4,4h4.6L169,174.1z"/>
	<path class="st0" d="M178.7,164.4l-2.4-4h-4.6l-2.4,4l2.4,4h4.6L178.7,164.4z"/>
	<path class="st0" d="M192.1,160.8l-2.4-4h-4.6l-2.4,4l2.4,4h4.6L192.1,160.8z"/>
	<path class="st0" d="M205.5,164.4l-2.4-4h-4.6l-2.4,4l2.4,4h4.6L205.5,164.4z"/>
	<path class="st0" d="M215.2,174.1l-2.4-4h-4.5l-2.4,4l2.4,4h4.5L215.2,174.1z"/>
	<path class="st0" d="M218.9,187.5l-2.4-4h-4.6l-2.4,4l2.4,4h4.6L218.9,187.5z"/>
	<path class="st0" d="M231.8,187.5l-2.1-3.7h-4.3l-2.1,3.7l2.1,3.7h4.3L231.8,187.5z"/>
	<path class="st0" d="M229.4,201.3l-2.1-3.7H223l-2.1,3.7l2.1,3.7h4.3L229.4,201.3z"/>
	<path class="st0" d="M222.5,213.3l-2.1-3.7H216l-2.1,3.7l2.1,3.7h4.3L222.5,213.3z"/>
	<path class="st0" d="M211.8,222.3l-2.1-3.7h-4.3l-2.1,3.7l2.1,3.7h4.3L211.8,222.3z"/>
	<path class="st0" d="M198.7,226.9l-2.1-3.7h-4.3l-2.1,3.7l2.1,3.7h4.3L198.7,226.9z"/>
	<path class="st0" d="M184.8,226.9l-2.1-3.7h-4.3l-2.1,3.7l2.1,3.7h4.3L184.8,226.9z"/>
	<path class="st0" d="M171.7,222.3l-2.1-3.7h-4.3l-2.1,3.7l2.1,3.7h4.3L171.7,222.3z"/>
	<path class="st0" d="M161,213.3l-2.1-3.7h-4.3l-2.1,3.7l2.1,3.7h4.3L161,213.3z"/>
	<path class="st0" d="M154,201.3l-2.1-3.7h-4.3l-2.1,3.7l2.1,3.7h4.3L154,201.3z"/>
	<path class="st0" d="M151.6,187.5l-2.1-3.7h-4.3l-2.1,3.7l2.1,3.7h4.3L151.6,187.5z"/>
	<path class="st0" d="M154,173.7l-2.1-3.7h-4.3l-2.1,3.7l2.1,3.7h4.3L154,173.7z"/>
	<path class="st0" d="M161,161.7l-2.1-3.7h-4.3l-2.1,3.7l2.1,3.7h4.3L161,161.7z"/>
	<path class="st0" d="M171.7,152.7l-2.1-3.7h-4.3l-2.1,3.7l2.1,3.7h4.3L171.7,152.7z"/>
	<path class="st0" d="M184.8,148.1l-2.1-3.7h-4.3l-2.1,3.7l2.1,3.7h4.3L184.8,148.1z"/>
	<path class="st0" d="M198.7,148.1l-2.1-3.7h-4.3l-2.1,3.7l2.1,3.7h4.3L198.7,148.1z"/>
	<path class="st0" d="M211.8,152.7l-2.1-3.7h-4.3l-2.1,3.7l2.1,3.7h4.3L211.8,152.7z"/>
	<path class="st0" d="M222.5,161.7l-2.1-3.7H216l-2.1,3.7l2.1,3.7h4.3L222.5,161.7z"/>
	<path class="st0" d="M229.4,173.7l-2.1-3.7H223l-2.1,3.7l2.1,3.7h4.3L229.4,173.7z"/>
	<path class="st0" d="M231.8,187.5l-2.1-3.7h-4.3l-2.1,3.7l2.1,3.7h4.3L231.8,187.5z"/>
	<path class="st0" d="M244.8,187.5l-1.9-3.3h-4l-1.9,3.3l1.9,3.3h4L244.8,187.5z"/>
	<path class="st0" d="M243.1,200.7l-1.9-3.3h-4l-1.9,3.3l1.9,3.3h4L243.1,200.7z"/>
	<path class="st0" d="M238.2,213.3l-1.9-3.3h-4l-1.9,3.3l1.9,3.3h4L238.2,213.3z"/>
	<path class="st0" d="M230.4,224.1l-1.9-3.3h-4l-1.9,3.3l1.9,3.3h4L230.4,224.1z"/>
	<path class="st0" d="M219.9,232.7l-1.9-3.3h-4l-1.9,3.3l1.9,3.3h4L219.9,232.7z"/>
	<path class="st0" d="M207.9,238.3L206,235h-4l-1.9,3.3l1.9,3.3h4L207.9,238.3z"/>
	<path class="st0" d="M194.7,240.8l-1.9-3.3h-4l-1.9,3.3l1.9,3.3h4L194.7,240.8z"/>
	<path class="st0" d="M181.3,240l-1.9-3.3h-4l-1.9,3.3l1.9,3.3h4L181.3,240z"/>
	<path class="st0" d="M168.6,235.9l-1.9-3.3h-4l-1.9,3.3l1.9,3.3h4L168.6,235.9z"/>
	<path class="st0" d="M157.2,228.7l-1.9-3.3h-4l-1.9,3.3l1.9,3.3h4L157.2,228.7z"/>
	<path class="st0" d="M148,218.9l-1.9-3.3h-4l-1.9,3.3l1.9,3.3h4L148,218.9z"/>
	<path class="st0" d="M141.6,207.2l-1.9-3.3h-4l-1.9,3.3l1.9,3.3h4L141.6,207.2z"/>
	<path class="st0" d="M138.2,194.2l-1.9-3.3h-4l-1.9,3.3l1.9,3.3h4L138.2,194.2z"/>
	<path class="st0" d="M138.2,180.8l-1.9-3.3h-4l-1.9,3.3l1.9,3.3h4L138.2,180.8z"/>
	<path class="st0" d="M141.6,167.8l-1.9-3.3h-4l-1.9,3.3l1.9,3.3h4L141.6,167.8z"/>
	<path class="st0" d="M148,156.1l-1.9-3.3h-4l-1.9,3.3l1.9,3.3h4L148,156.1z"/>
	<path class="st0" d="M157.2,146.3l-1.9-3.3h-4l-1.9,3.3l1.9,3.3h4L157.2,146.3z"/>
	<path class="st0" d="M168.6,139.1l-1.9-3.3h-4l-1.9,3.3l1.9,3.3h4L168.6,139.1z"/>
	<path class="st0" d="M181.3,135l-1.9-3.3h-4l-1.9,3.3l1.9,3.3h4L181.3,135z"/>
	<path class="st0" d="M194.7,134.2l-1.9-3.3h-4l-1.9,3.3l1.9,3.3h4L194.7,134.2z"/>
	<path class="st0" d="M207.9,136.7l-1.9-3.3h-4l-1.9,3.3l1.9,3.3h4L207.9,136.7z"/>
	<path class="st0" d="M219.9,142.3l-1.9-3.3h-4l-1.9,3.3l1.9,3.3h4L219.9,142.3z"/>
	<path class="st0" d="M230.4,150.9l-1.9-3.3h-4l-1.9,3.3l1.9,3.3h4L230.4,150.9z"/>
	<path class="st0" d="M238.2,161.7l-1.9-3.3h-4l-1.9,3.3l1.9,3.3h4L238.2,161.7z"/>
	<path class="st0" d="M243.1,174.3l-1.9-3.3h-4l-1.9,3.3l1.9,3.3h4L243.1,174.3z"/>
	<path class="st0" d="M244.8,187.5l-1.9-3.3h-4l-1.9,3.3l1.9,3.3h4L244.8,187.5z"/>
	<path class="st0" d="M257.9,187.5l-1.9-3.1h-3.5l-1.9,3.1l1.9,3.1h3.5L257.9,187.5z"/>
	<path class="st0" d="M256.6,201l-1.9-3.1h-3.5l-1.9,3.1l1.9,3.1h3.5L256.6,201z"/>
	<path class="st0" d="M252.4,213.8l-1.9-3.1h-3.5l-1.9,3.1l1.9,3.1h3.5L252.4,213.8z"/>
	<path class="st0" d="M245.9,225.7l-1.9-3.1h-3.5l-1.9,3.1l1.9,3.1h3.5L245.9,225.7z"/>
	<path class="st0" d="M237,235.9l-1.9-3.1h-3.5l-1.9,3.1l1.9,3.1h3.5L237,235.9z"/>
	<path class="st0" d="M226.3,244.2l-1.9-3.1H221l-1.9,3.1l1.9,3.1h3.5L226.3,244.2z"/>
	<path class="st0" d="M214.3,250.2l-1.9-3.1H209l-1.9,3.1l1.9,3.1h3.5L214.3,250.2z"/>
	<path class="st0" d="M201.2,253.6l-1.9-3.1h-3.5l-1.9,3.1l1.9,3.1h3.5L201.2,253.6z"/>
	<path class="st0" d="M187.7,254.2l-1.9-3.1h-3.5l-1.9,3.1l1.9,3.1h3.5L187.7,254.2z"/>
	<path class="st0" d="M174.3,252.2l-1.9-3.1H169l-1.9,3.1l1.9,3.1h3.5L174.3,252.2z"/>
	<path class="st0" d="M161.6,247.5l-1.9-3.1h-3.5l-1.9,3.1l1.9,3.1h3.5L161.6,247.5z"/>
	<path class="st0" d="M150.1,240.3l-1.9-3.1h-3.5l-1.9,3.1l1.9,3.1h3.5L150.1,240.3z"/>
	<path class="st0" d="M140.4,231.1l-1.9-3.1H135l-1.9,3.1l1.9,3.1h3.5L140.4,231.1z"/>
	<path class="st0" d="M132.6,220l-1.9-3.1h-3.5l-1.9,3.1l1.9,3.1h3.5L132.6,220z"/>
	<path class="st0" d="M127.3,207.6l-1.9-3.1h-3.5l-1.9,3.1l1.9,3.1h3.5L127.3,207.6z"/>
	<path class="st0" d="M124.6,194.3l-1.9-3.1h-3.5l-1.9,3.1l1.9,3.1h3.5L124.6,194.3z"/>
	<path class="st0" d="M124.6,180.7l-1.9-3.1h-3.5l-1.9,3.1l1.9,3.1h3.5L124.6,180.7z"/>
	<path class="st0" d="M127.3,167.4l-1.9-3.1h-3.5l-1.9,3.1l1.9,3.1h3.5L127.3,167.4z"/>
	<path class="st0" d="M132.6,155l-1.9-3.1h-3.5l-1.9,3.1l1.9,3.1h3.5L132.6,155z"/>
	<path class="st0" d="M140.4,143.9l-1.9-3.1H135l-1.9,3.1l1.9,3.1h3.5L140.4,143.9z"/>
	<path class="st0" d="M150.1,134.7l-1.9-3.1h-3.5l-1.9,3.1l1.9,3.1h3.5L150.1,134.7z"/>
	<path class="st0" d="M161.6,127.5l-1.9-3.1h-3.5l-1.9,3.1l1.9,3.1h3.5L161.6,127.5z"/>
	<path class="st0" d="M174.3,122.8l-1.9-3.1H169l-1.9,3.1l1.9,3.1h3.5L174.3,122.8z"/>
	<path class="st0" d="M187.7,120.8l-1.9-3.1h-3.5l-1.9,3.1l1.9,3.1h3.5L187.7,120.8z"/>
	<path class="st0" d="M201.2,121.4l-1.9-3.1h-3.5l-1.9,3.1l1.9,3.1h3.5L201.2,121.4z"/>
	<path class="st0" d="M214.3,124.8l-1.9-3.1H209l-1.9,3.1l1.9,3.1h3.5L214.3,124.8z"/>
	<path class="st0" d="M226.3,130.8l-1.9-3.1H221l-1.9,3.1l1.9,3.1h3.5L226.3,130.8z"/>
	<path class="st0" d="M237,139.1l-1.9-3.1h-3.5l-1.9,3.1l1.9,3.1h3.5L237,139.1z"/>
	<path class="st0" d="M245.9,149.3l-1.9-3.1h-3.5l-1.9,3.1l1.9,3.1h3.5L245.9,149.3z"/>
	<path class="st0" d="M252.4,161.2l-1.9-3.1h-3.5l-1.9,3.1l1.9,3.1h3.5L252.4,161.2z"/>
	<path class="st0" d="M256.6,174l-1.9-3.1h-3.5l-1.9,3.1l1.9,3.1h3.5L256.6,174z"/>
	<path class="st0" d="M257.9,187.5l-1.9-3.1h-3.5l-1.9,3.1l1.9,3.1h3.5L257.9,187.5z"/>
	<path class="st0" d="M270.9,187.5l-1.6-2.8h-3.2l-1.6,2.8l1.6,2.8h3.2L270.9,187.5z"/>
	<path class="st0" d="M269.7,201l-1.6-2.8h-3.2l-1.6,2.8l1.6,2.8h3.2L269.7,201z"/>
	<path class="st0" d="M266.3,214.2l-1.6-2.8h-3.2l-1.6,2.8l1.6,2.8h3.2L266.3,214.2z"/>
	<path class="st0" d="M260.7,226.7l-1.6-2.8h-3.2l-1.6,2.8l1.6,2.8h3.2L260.7,226.7z"/>
	<path class="st0" d="M253.1,237.9l-1.6-2.8h-3.2l-1.6,2.8l1.6,2.8h3.2L253.1,237.9z"/>
	<path class="st0" d="M243.6,247.7l-1.6-2.8h-3.2l-1.6,2.8l1.6,2.8h3.2L243.6,247.7z"/>
	<path class="st0" d="M232.8,255.8l-1.6-2.8h-3.2l-1.6,2.8l1.6,2.8h3.2L232.8,255.8z"/>
	<path class="st0" d="M220.6,262l-1.6-2.8h-3.2l-1.6,2.8l1.6,2.8h3.2L220.6,262z"/>
	<path class="st0" d="M207.5,266l-1.6-2.8h-3.2l-1.6,2.8l1.6,2.8h3.2L207.5,266z"/>
	<path class="st0" d="M194,267.6l-1.6-2.8h-3.2l-1.6,2.8l1.6,2.8h3.2L194,267.6z"/>
	<path class="st0" d="M180.5,267.1l-1.6-2.8h-3.2l-1.6,2.8l1.6,2.8h3.2L180.5,267.1z"/>
	<path class="st0" d="M167.1,264.3l-1.6-2.8h-3.2l-1.6,2.8l1.6,2.8h3.2L167.1,264.3z"/>
	<path class="st0" d="M154.5,259.2l-1.6-2.8h-3.2l-1.6,2.8l1.6,2.8h3.2L154.5,259.2z"/>
	<path class="st0" d="M142.9,251.9l-1.6-2.8h-3.2l-1.6,2.8l1.6,2.8h3.2L142.9,251.9z"/>
	<path class="st0" d="M132.7,243l-1.6-2.8h-3.2l-1.6,2.8l1.6,2.8h3.2L132.7,243z"/>
	<path class="st0" d="M124.2,232.4l-1.6-2.8h-3.2l-1.6,2.8l1.6,2.8h3.2L124.2,232.4z"/>
	<path class="st0" d="M117.5,220.5l-1.6-2.8h-3.2l-1.6,2.8l1.6,2.8h3.2L117.5,220.5z"/>
	<path class="st0" d="M113,207.7l-1.6-2.8h-3.2l-1.6,2.8l1.6,2.8h3.2L113,207.7z"/>
	<path class="st0" d="M110.7,194.3l-1.6-2.8h-3.2l-1.6,2.8l1.6,2.8h3.2L110.7,194.3z"/>
	<path class="st0" d="M110.7,180.7l-1.6-2.8h-3.2l-1.6,2.8l1.6,2.8h3.2L110.7,180.7z"/>
	<path class="st0" d="M113,167.3l-1.6-2.8h-3.2l-1.6,2.8l1.6,2.8h3.2L113,167.3z"/>
	<path class="st0" d="M117.5,154.5l-1.6-2.8h-3.2l-1.6,2.8l1.6,2.8h3.2L117.5,154.5z"/>
	<path class="st0" d="M124.2,142.6l-1.6-2.8h-3.2l-1.6,2.8l1.6,2.8h3.2L124.2,142.6z"/>
	<path class="st0" d="M132.7,132l-1.6-2.8h-3.2l-1.6,2.8l1.6,2.8h3.2L132.7,132z"/>
	<path class="st0" d="M142.9,123.1l-1.6-2.8h-3.2l-1.6,2.8l1.6,2.8h3.2L142.9,123.1z"/>
	<path class="st0" d="M154.5,115.8l-1.6-2.8h-3.2l-1.6,2.8l1.6,2.8h3.2L154.5,115.8z"/>
	<path class="st0" d="M167.1,110.8l-1.6-2.8h-3.2l-1.6,2.8l1.6,2.8h3.2L167.1,110.8z"/>
	<path class="st0" d="M180.5,107.9l-1.6-2.8h-3.2l-1.6,2.8l1.6,2.8h3.2L180.5,107.9z"/>
	<path class="st0" d="M194,107.4l-1.6-2.8h-3.2l-1.6,2.8l1.6,2.8h3.2L194,107.4z"/>
	<path class="st0" d="M207.5,109l-1.6-2.8h-3.2l-1.6,2.8l1.6,2.8h3.2L207.5,109z"/>
	<path class="st0" d="M220.6,113l-1.6-2.8h-3.2l-1.6,2.8l1.6,2.8h3.2L220.6,113z"/>
	<path class="st0" d="M232.8,119.2l-1.6-2.8h-3.2l-1.6,2.8l1.6,2.8h3.2L232.8,119.2z"/>
	<path class="st0" d="M243.6,127.3l-1.6-2.8h-3.2l-1.6,2.8l1.6,2.8h3.2L243.6,127.3z"/>
	<path class="st0" d="M253.1,137.1l-1.6-2.8h-3.2l-1.6,2.8l1.6,2.8h3.2L253.1,137.1z"/>
	<path class="st0" d="M260.7,148.3l-1.6-2.8h-3.2l-1.6,2.8l1.6,2.8h3.2L260.7,148.3z"/>
	<path class="st0" d="M266.3,160.8l-1.6-2.8h-3.2l-1.6,2.8l1.6,2.8h3.2L266.3,160.8z"/>
	<path class="st0" d="M269.7,174l-1.6-2.8h-3.2l-1.6,2.8l1.6,2.8h3.2L269.7,174z"/>
	<path class="st0" d="M270.9,187.5l-1.6-2.8h-3.2l-1.6,2.8l1.6,2.8h3.2L270.9,187.5z"/>
	<path class="st0" d="M283.8,187.5l-1.3-2.4h-2.9l-1.3,2.4l1.3,2.4h2.9L283.8,187.5z"/>
	<path class="st0" d="M282.9,201.1l-1.3-2.4h-2.9l-1.3,2.4l1.3,2.4h2.9L282.9,201.1z"/>
	<path class="st0" d="M279.8,214.5l-1.3-2.4h-2.9l-1.3,2.4l1.3,2.4h2.9L279.8,214.5z"/>
	<path class="st0" d="M275,227.2l-1.3-2.4h-2.9l-1.3,2.4l1.3,2.4h2.9L275,227.2z"/>
	<path class="st0" d="M268.3,239.1l-1.3-2.4H264l-1.3,2.4l1.3,2.4h2.9L268.3,239.1z"/>
	<path class="st0" d="M259.9,249.9l-1.3-2.4h-2.9l-1.3,2.4l1.3,2.4h2.9L259.9,249.9z"/>
	<path class="st0" d="M250.1,259.4l-1.3-2.4h-2.9l-1.3,2.4l1.3,2.4h2.9L250.1,259.4z"/>
	<path class="st0" d="M239,267.5l-1.3-2.4h-2.9l-1.3,2.4l1.3,2.4h2.9L239,267.5z"/>
	<path class="st0" d="M226.9,273.6l-1.3-2.4h-2.9l-1.3,2.4l1.3,2.4h2.9L226.9,273.6z"/>
	<path class="st0" d="M213.9,278l-1.3-2.4h-2.9l-1.3,2.4l1.3,2.4h2.9L213.9,278z"/>
	<path class="st0" d="M200.5,280.6l-1.3-2.4h-2.9l-1.3,2.4l1.3,2.4h2.9L200.5,280.6z"/>
	<path class="st0" d="M186.8,281.1l-1.3-2.4h-2.9l-1.3,2.4l1.3,2.4h2.9L186.8,281.1z"/>
	<path class="st0" d="M173.3,279.5l-1.3-2.4H169l-1.3,2.4l1.3,2.4h2.9L173.3,279.5z"/>
	<path class="st0" d="M160,276.1l-1.3-2.4h-2.9l-1.3,2.4l1.3,2.4h2.9L160,276.1z"/>
	<path class="st0" d="M147.5,270.8l-1.3-2.4h-2.9l-1.3,2.4l1.3,2.4h2.9L147.5,270.8z"/>
	<path class="st0" d="M135.8,263.6l-1.3-2.4h-2.9l-1.3,2.4l1.3,2.4h2.9L135.8,263.6z"/>
	<path class="st0" d="M125.3,254.9l-1.3-2.4H121l-1.3,2.4l1.3,2.4h2.9L125.3,254.9z"/>
	<path class="st0" d="M116.2,244.7l-1.3-2.4h-2.9l-1.3,2.4l1.3,2.4h2.9L116.2,244.7z"/>
	<path class="st0" d="M108.7,233.4l-1.3-2.4h-2.9l-1.3,2.4l1.3,2.4h2.9L108.7,233.4z"/>
	<path class="st0" d="M102.8,220.9l-1.3-2.4h-2.9l-1.3,2.4l1.3,2.4h2.9L102.8,220.9z"/>
	<path class="st0" d="M98.9,207.8l-1.3-2.4h-2.9l-1.3,2.4l1.3,2.4h2.9L98.9,207.8z"/>
	<path class="st0" d="M96.9,194.3l-1.3-2.4h-2.9l-1.3,2.4l1.3,2.4h2.9L96.9,194.3z"/>
	<path class="st0" d="M96.9,180.7l-1.3-2.4h-2.9l-1.3,2.4l1.3,2.4h2.9L96.9,180.7z"/>
	<path class="st0" d="M98.9,167.2l-1.3-2.4h-2.9l-1.3,2.4l1.3,2.4h2.9L98.9,167.2z"/>
	<path class="st0" d="M102.8,154.1l-1.3-2.4h-2.9l-1.3,2.4l1.3,2.4h2.9L102.8,154.1z"/>
	<path class="st0" d="M108.7,141.6l-1.3-2.4h-2.9l-1.3,2.4l1.3,2.4h2.9L108.7,141.6z"/>
	<path class="st0" d="M116.2,130.3l-1.3-2.4h-2.9l-1.3,2.4l1.3,2.4h2.9L116.2,130.3z"/>
	<path class="st0" d="M125.3,120.1l-1.3-2.4H121l-1.3,2.4l1.3,2.4h2.9L125.3,120.1z"/>
	<path class="st0" d="M135.8,111.4l-1.3-2.4h-2.9l-1.3,2.4l1.3,2.4h2.9L135.8,111.4z"/>
	<path class="st0" d="M147.5,104.2l-1.3-2.4h-2.9l-1.3,2.4l1.3,2.4h2.9L147.5,104.2z"/>
	<path class="st0" d="M160,98.9l-1.3-2.4h-2.9l-1.3,2.4l1.3,2.4h2.9L160,98.9z"/>
	<path class="st0" d="M173.3,95.5l-1.3-2.4H169l-1.3,2.4l1.3,2.4h2.9L173.3,95.5z"/>
	<path class="st0" d="M186.8,93.9l-1.3-2.4h-2.9l-1.3,2.4l1.3,2.4h2.9L186.8,93.9z"/>
	<path class="st0" d="M200.5,94.4l-1.3-2.4h-2.9l-1.3,2.4l1.3,2.4h2.9L200.5,94.4z"/>
	<path class="st0" d="M213.9,97l-1.3-2.4h-2.9l-1.3,2.4l1.3,2.4h2.9L213.9,97z"/>
	<path class="st0" d="M226.9,101.4l-1.3-2.4h-2.9l-1.3,2.4l1.3,2.4h2.9L226.9,101.4z"/>
	<path class="st0" d="M239,107.5l-1.3-2.4h-2.9l-1.3,2.4l1.3,2.4h2.9L239,107.5z"/>
	<path class="st0" d="M250.1,115.6l-1.3-2.4h-2.9l-1.3,2.4l1.3,2.4h2.9L250.1,115.6z"/>
	<path class="st0" d="M259.9,125.1l-1.3-2.4h-2.9l-1.3,2.4l1.3,2.4h2.9L259.9,125.1z"/>
	<path class="st0" d="M268.3,135.9l-1.3-2.4H264l-1.3,2.4l1.3,2.4h2.9L268.3,135.9z"/>
	<path class="st0" d="M275,147.8l-1.3-2.4h-2.9l-1.3,2.4l1.3,2.4h2.9L275,147.8z"/>
	<path class="st0" d="M279.8,160.5l-1.3-2.4h-2.9l-1.3,2.4l1.3,2.4h2.9L279.8,160.5z"/>
	<path class="st0" d="M282.9,173.9l-1.3-2.4h-2.9l-1.3,2.4l1.3,2.4h2.9L282.9,173.9z"/>
	<path class="st0" d="M283.8,187.5l-1.3-2.4h-2.9l-1.3,2.4l1.3,2.4h2.9L283.8,187.5z"/>
	<path class="st0" d="M296.9,187.5l-1.3-2.1h-2.4l-1.3,2.1l1.3,2.1h2.4L296.9,187.5z"/>
	<path class="st0" d="M296.1,200.9l-1.3-2.1h-2.4l-1.3,2.1l1.3,2.1h2.4L296.1,200.9z"/>
	<path class="st0" d="M293.6,214.1l-1.3-2.1h-2.4l-1.3,2.1l1.3,2.1h2.4L293.6,214.1z"/>
	<path class="st0" d="M289.4,226.8l-1.3-2.1h-2.4l-1.3,2.1l1.3,2.1h2.4L289.4,226.8z"/>
	<path class="st0" d="M283.7,239l-1.3-2.1H280l-1.3,2.1l1.3,2.1h2.4L283.7,239z"/>
	<path class="st0" d="M276.5,250.3l-1.3-2.1h-2.4l-1.3,2.1l1.3,2.1h2.4L276.5,250.3z"/>
	<path class="st0" d="M267.9,260.8l-1.3-2.1h-2.4l-1.3,2.1l1.3,2.1h2.4L267.9,260.8z"/>
	<path class="st0" d="M258.2,269.9l-1.3-2.1h-2.4l-1.3,2.1l1.3,2.1h2.4L258.2,269.9z"/>
	<path class="st0" d="M247.3,277.7l-1.3-2.1h-2.4l-1.3,2.1l1.3,2.1h2.4L247.3,277.7z"/>
	<path class="st0" d="M235.6,284.3l-1.3-2.1h-2.4l-1.3,2.1l1.3,2.1h2.4L235.6,284.3z"/>
	<path class="st0" d="M223,289.3l-1.3-2.1h-2.4l-1.3,2.1l1.3,2.1h2.4L223,289.3z"/>
	<path class="st0" d="M210,292.6l-1.3-2.1h-2.4l-1.3,2.1l1.3,2.1h2.4L210,292.6z"/>
	<path class="st0" d="M196.7,294.2l-1.3-2.1h-2.4l-1.3,2.1l1.3,2.1h2.4L196.7,294.2z"/>
	<path class="st0" d="M183.3,294.2l-1.3-2.1h-2.4l-1.3,2.1l1.3,2.1h2.4L183.3,294.2z"/>
	<path class="st0" d="M169.9,292.6l-1.3-2.1h-2.4l-1.3,2.1l1.3,2.1h2.4L169.9,292.6z"/>
	<path class="st0" d="M156.9,289.3l-1.3-2.1h-2.4l-1.3,2.1l1.3,2.1h2.4L156.9,289.3z"/>
	<path class="st0" d="M144.4,284.3l-1.3-2.1h-2.4l-1.3,2.1l1.3,2.1h2.4L144.4,284.3z"/>
	<path class="st0" d="M132.6,277.7l-1.3-2.1h-2.4l-1.3,2.1l1.3,2.1h2.4L132.6,277.7z"/>
	<path class="st0" d="M121.8,269.9l-1.3-2.1H118l-1.3,2.1l1.3,2.1h2.4L121.8,269.9z"/>
	<path class="st0" d="M112,260.8l-1.3-2.1h-2.4l-1.3,2.1l1.3,2.1h2.4L112,260.8z"/>
	<path class="st0" d="M103.5,250.3l-1.3-2.1h-2.4l-1.3,2.1l1.3,2.1h2.4L103.5,250.3z"/>
	<path class="st0" d="M96.2,239l-1.3-2.1h-2.4l-1.3,2.1l1.3,2.1h2.4L96.2,239z"/>
	<path class="st0" d="M90.5,226.8l-1.3-2.1h-2.4l-1.3,2.1l1.3,2.1h2.4L90.5,226.8z"/>
	<path class="st0" d="M86.4,214.1L85,212h-2.4l-1.3,2.1l1.3,2.1H85L86.4,214.1z"/>
	<path class="st0" d="M83.8,200.9l-1.3-2.1h-2.4l-1.3,2.1l1.3,2.1h2.4L83.8,200.9z"/>
	<path class="st0" d="M83,187.5l-1.3-2.1h-2.4l-1.3,2.1l1.3,2.1h2.4L83,187.5z"/>
	<path class="st0" d="M83.8,174.1l-1.3-2.1h-2.4l-1.3,2.1l1.3,2.1h2.4L83.8,174.1z"/>
	<path class="st0" d="M86.4,160.9l-1.3-2.1h-2.4l-1.3,2.1l1.3,2.1H85L86.4,160.9z"/>
	<path class="st0" d="M90.5,148.2l-1.3-2.1h-2.4l-1.3,2.1l1.3,2.1h2.4L90.5,148.2z"/>
	<path class="st0" d="M96.2,136l-1.3-2.1h-2.4l-1.3,2.1l1.3,2.1h2.4L96.2,136z"/>
	<path class="st0" d="M103.5,124.7l-1.3-2.1h-2.4l-1.3,2.1l1.3,2.1h2.4L103.5,124.7z"/>
	<path class="st0" d="M112,114.2l-1.3-2.1h-2.4l-1.3,2.1l1.3,2.1h2.4L112,114.2z"/>
	<path class="st0" d="M121.8,105.1l-1.3-2.1H118l-1.3,2.1l1.3,2.1h2.4L121.8,105.1z"/>
	<path class="st0" d="M132.6,97.3l-1.3-2.1h-2.4l-1.3,2.1l1.3,2.1h2.4L132.6,97.3z"/>
	<path class="st0" d="M144.4,90.7l-1.3-2.1h-2.4l-1.3,2.1l1.3,2.1h2.4L144.4,90.7z"/>
	<path class="st0" d="M156.9,85.8l-1.3-2.1h-2.4l-1.3,2.1l1.3,2.1h2.4L156.9,85.8z"/>
	<path class="st0" d="M169.9,82.4l-1.3-2.1h-2.4l-1.3,2.1l1.3,2.1h2.4L169.9,82.4z"/>
	<path class="st0" d="M183.3,80.8l-1.3-2.1h-2.4l-1.3,2.1l1.3,2.1h2.4L183.3,80.8z"/>
	<path class="st0" d="M196.7,80.8l-1.3-2.1h-2.4l-1.3,2.1l1.3,2.1h2.4L196.7,80.8z"/>
	<path class="st0" d="M210,82.4l-1.3-2.1h-2.4l-1.3,2.1l1.3,2.1h2.4L210,82.4z"/>
	<path class="st0" d="M223,85.8l-1.3-2.1h-2.4l-1.3,2.1l1.3,2.1h2.4L223,85.8z"/>
	<path class="st0" d="M235.6,90.7l-1.3-2.1h-2.4l-1.3,2.1l1.3,2.1h2.4L235.6,90.7z"/>
	<path class="st0" d="M247.3,97.3l-1.3-2.1h-2.4l-1.3,2.1l1.3,2.1h2.4L247.3,97.3z"/>
	<path class="st0" d="M258.2,105.1l-1.3-2.1h-2.4l-1.3,2.1l1.3,2.1h2.4L258.2,105.1z"/>
	<path class="st0" d="M267.9,114.2l-1.3-2.1h-2.4l-1.3,2.1l1.3,2.1h2.4L267.9,114.2z"/>
	<path class="st0" d="M276.5,124.7l-1.3-2.1h-2.4l-1.3,2.1l1.3,2.1h2.4L276.5,124.7z"/>
	<path class="st0" d="M283.7,136l-1.3-2.1H280l-1.3,2.1l1.3,2.1h2.4L283.7,136z"/>
	<path class="st0" d="M289.4,148.2l-1.3-2.1h-2.4l-1.3,2.1l1.3,2.1h2.4L289.4,148.2z"/>
	<path class="st0" d="M293.6,160.9l-1.3-2.1h-2.4l-1.3,2.1l1.3,2.1h2.4L293.6,160.9z"/>
	<path class="st0" d="M296.1,174.1l-1.3-2.1h-2.4l-1.3,2.1l1.3,2.1h2.4L296.1,174.1z"/>
	<path class="st0" d="M296.9,187.5l-1.3-2.1h-2.4l-1.3,2.1l1.3,2.1h2.4L296.9,187.5z"/>
	<path class="st0" d="M309.9,187.5l-1.1-1.9h-2.1l-1.1,1.9l1.1,1.9h2.1L309.9,187.5z"/>
	<path class="st0" d="M309.1,201l-1.1-1.9h-2.1l-1.1,1.9l1.1,1.9h2.1L309.1,201z"/>
	<path class="st0" d="M306.8,214.2l-1.1-1.9h-2.1l-1.1,1.9l1.1,1.9h2.1L306.8,214.2z"/>
	<path class="st0" d="M303.1,227.2l-1.1-1.9h-2.1l-1.1,1.9l1.1,1.9h2.1L303.1,227.2z"/>
	<path class="st0" d="M298,239.6l-1.1-1.9h-2.1l-1.1,1.9l1.1,1.9h2.1L298,239.6z"/>
	<path class="st0" d="M291.5,251.5l-1.1-1.9h-2.1l-1.1,1.9l1.1,1.9h2.1L291.5,251.5z"/>
	<path class="st0" d="M283.7,262.5l-1.1-1.9h-2.1l-1.1,1.9l1.1,1.9h2.1L283.7,262.5z"/>
	<path class="st0" d="M274.6,272.5l-1.1-1.9h-2.1l-1.1,1.9l1.1,1.9h2.1L274.6,272.5z"/>
	<path class="st0" d="M264.6,281.6l-1.1-1.9h-2.1l-1.1,1.9l1.1,1.9h2.1L264.6,281.6z"/>
	<path class="st0" d="M253.6,289.4l-1.1-1.9h-2.1l-1.1,1.9l1.1,1.9h2.1L253.6,289.4z"/>
	<path class="st0" d="M241.7,295.9l-1.1-1.9h-2.1l-1.1,1.9l1.1,1.9h2.1L241.7,295.9z"/>
	<path class="st0" d="M229.3,301l-1.1-1.9h-2.1L225,301l1.1,1.9h2.1L229.3,301z"/>
	<path class="st0" d="M216.3,304.8l-1.1-1.9h-2.1l-1.1,1.9l1.1,1.9h2.1L216.3,304.8z"/>
	<path class="st0" d="M203.1,307l-1.1-1.9h-2.1l-1.1,1.9l1.1,1.9h2.1L203.1,307z"/>
	<path class="st0" d="M189.6,307.8l-1.1-1.9h-2.1l-1.1,1.9l1.1,1.9h2.1L189.6,307.8z"/>
	<path class="st0" d="M176.1,307l-1.1-1.9h-2.1l-1.1,1.9l1.1,1.9h2.1L176.1,307z"/>
	<path class="st0" d="M162.8,304.8l-1.1-1.9h-2.1l-1.1,1.9l1.1,1.9h2.1L162.8,304.8z"/>
	<path class="st0" d="M149.9,301l-1.1-1.9h-2.1l-1.1,1.9l1.1,1.9h2.1L149.9,301z"/>
	<path class="st0" d="M137.4,295.9l-1.1-1.9h-2.1l-1.1,1.9l1.1,1.9h2.1L137.4,295.9z"/>
	<path class="st0" d="M125.5,289.4l-1.1-1.9h-2.1l-1.1,1.9l1.1,1.9h2.1L125.5,289.4z"/>
	<path class="st0" d="M114.6,281.6l-1.1-1.9h-2.1l-1.1,1.9l1.1,1.9h2.1L114.6,281.6z"/>
	<path class="st0" d="M104.5,272.5l-1.1-1.9h-2.1l-1.1,1.9l1.1,1.9h2.1L104.5,272.5z"/>
	<path class="st0" d="M95.4,262.5l-1.1-1.9h-2.1l-1.1,1.9l1.1,1.9h2.1L95.4,262.5z"/>
	<path class="st0" d="M87.7,251.5l-1.1-1.9h-2.1l-1.1,1.9l1.1,1.9h2.1L87.7,251.5z"/>
	<path class="st0" d="M81.1,239.6l-1.1-1.9h-2.1l-1.1,1.9l1.1,1.9h2.1L81.1,239.6z"/>
	<path class="st0" d="M76.1,227.2l-1.1-1.9h-2.1l-1.1,1.9l1.1,1.9H75L76.1,227.2z"/>
	<path class="st0" d="M72.3,214.2l-1.1-1.9h-2.1l-1.1,1.9l1.1,1.9h2.1L72.3,214.2z"/>
	<path class="st0" d="M70,201l-1.1-1.9h-2.1l-1.1,1.9l1.1,1.9H69L70,201z"/>
	<path class="st0" d="M69.2,187.5l-1.1-1.9H66l-1.1,1.9l1.1,1.9h2.1L69.2,187.5z"/>
	<path class="st0" d="M70,174l-1.1-1.9h-2.1l-1.1,1.9l1.1,1.9H69L70,174z"/>
	<path class="st0" d="M72.3,160.8l-1.1-1.9h-2.1l-1.1,1.9l1.1,1.9h2.1L72.3,160.8z"/>
	<path class="st0" d="M76.1,147.8l-1.1-1.9h-2.1l-1.1,1.9l1.1,1.9H75L76.1,147.8z"/>
	<path class="st0" d="M81.1,135.4l-1.1-1.9h-2.1l-1.1,1.9l1.1,1.9h2.1L81.1,135.4z"/>
	<path class="st0" d="M87.7,123.5l-1.1-1.9h-2.1l-1.1,1.9l1.1,1.9h2.1L87.7,123.5z"/>
	<path class="st0" d="M95.4,112.5l-1.1-1.9h-2.1l-1.1,1.9l1.1,1.9h2.1L95.4,112.5z"/>
	<path class="st0" d="M104.5,102.5l-1.1-1.9h-2.1l-1.1,1.9l1.1,1.9h2.1L104.5,102.5z"/>
	<path class="st0" d="M114.6,93.4l-1.1-1.9h-2.1l-1.1,1.9l1.1,1.9h2.1L114.6,93.4z"/>
	<path class="st0" d="M125.5,85.6l-1.1-1.9h-2.1l-1.1,1.9l1.1,1.9h2.1L125.5,85.6z"/>
	<path class="st0" d="M137.4,79.1l-1.1-1.9h-2.1l-1.1,1.9l1.1,1.9h2.1L137.4,79.1z"/>
	<path class="st0" d="M149.9,74l-1.1-1.9h-2.1l-1.1,1.9l1.1,1.9h2.1L149.9,74z"/>
	<path class="st0" d="M162.8,70.2l-1.1-1.9h-2.1l-1.1,1.9l1.1,1.9h2.1L162.8,70.2z"/>
	<path class="st0" d="M176.1,68l-1.1-1.9h-2.1l-1.1,1.9l1.1,1.9h2.1L176.1,68z"/>
	<path class="st0" d="M189.6,67.2l-1.1-1.9h-2.1l-1.1,1.9l1.1,1.9h2.1L189.6,67.2z"/>
	<path class="st0" d="M203.1,68l-1.1-1.9h-2.1l-1.1,1.9l1.1,1.9h2.1L203.1,68z"/>
	<path class="st0" d="M216.3,70.2l-1.1-1.9h-2.1l-1.1,1.9l1.1,1.9h2.1L216.3,70.2z"/>
	<path class="st0" d="M229.3,74l-1.1-1.9h-2.1L225,74l1.1,1.9h2.1L229.3,74z"/>
	<path class="st0" d="M241.7,79.1l-1.1-1.9h-2.1l-1.1,1.9l1.1,1.9h2.1L241.7,79.1z"/>
	<path class="st0" d="M253.6,85.6l-1.1-1.9h-2.1l-1.1,1.9l1.1,1.9h2.1L253.6,85.6z"/>
	<path class="st0" d="M264.6,93.4l-1.1-1.9h-2.1l-1.1,1.9l1.1,1.9h2.1L264.6,93.4z"/>
	<path class="st0" d="M274.6,102.5l-1.1-1.9h-2.1l-1.1,1.9l1.1,1.9h2.1L274.6,102.5z"/>
	<path class="st0" d="M283.7,112.5l-1.1-1.9h-2.1l-1.1,1.9l1.1,1.9h2.1L283.7,112.5z"/>
	<path class="st0" d="M291.5,123.5l-1.1-1.9h-2.1l-1.1,1.9l1.1,1.9h2.1L291.5,123.5z"/>
	<path class="st0" d="M298,135.4l-1.1-1.9h-2.1l-1.1,1.9l1.1,1.9h2.1L298,135.4z"/>
	<path class="st0" d="M303.1,147.8l-1.1-1.9h-2.1l-1.1,1.9l1.1,1.9h2.1L303.1,147.8z"/>
	<path class="st0" d="M306.8,160.8l-1.1-1.9h-2.1l-1.1,1.9l1.1,1.9h2.1L306.8,160.8z"/>
	<path class="st0" d="M309.1,174l-1.1-1.9h-2.1l-1.1,1.9l1.1,1.9h2.1L309.1,174z"/>
	<path class="st0" d="M309.9,187.5l-1.1-1.9h-2.1l-1.1,1.9l1.1,1.9h2.1L309.9,187.5z"/>
	<path class="st0" d="M322.9,187.5l-0.8-1.6h-1.9l-0.8,1.6l0.8,1.6h1.9L322.9,187.5z"/>
	<path class="st0" d="M322.2,201l-0.8-1.6h-1.9l-0.8,1.6l0.8,1.6h1.9L322.2,201z"/>
	<path class="st0" d="M320.2,214.4l-0.8-1.6h-1.9l-0.8,1.6l0.8,1.6h1.9L320.2,214.4z"/>
	<path class="st0" d="M316.7,227.5l-0.8-1.6H314l-0.8,1.6l0.8,1.6h1.9L316.7,227.5z"/>
	<path class="st0" d="M312,240.2l-0.8-1.6h-1.9l-0.8,1.6l0.8,1.6h1.9L312,240.2z"/>
	<path class="st0" d="M306,252.3l-0.8-1.6h-1.9l-0.8,1.6l0.8,1.6h1.9L306,252.3z"/>
	<path class="st0" d="M298.9,263.8l-0.8-1.6h-1.9l-0.8,1.6l0.8,1.6h1.9L298.9,263.8z"/>
	<path class="st0" d="M290.6,274.5l-0.8-1.6H288l-0.8,1.6l0.8,1.6h1.9L290.6,274.5z"/>
	<path class="st0" d="M281.3,284.4l-0.8-1.6h-1.9l-0.8,1.6l0.8,1.6h1.9L281.3,284.4z"/>
	<path class="st0" d="M271,293.3l-0.8-1.6h-1.9l-0.8,1.6l0.8,1.6h1.9L271,293.3z"/>
	<path class="st0" d="M259.9,301l-0.8-1.6h-1.9l-0.8,1.6l0.8,1.6h1.9L259.9,301z"/>
	<path class="st0" d="M248,307.6l-0.8-1.6h-1.9l-0.8,1.6l0.8,1.6h1.9L248,307.6z"/>
	<path class="st0" d="M235.6,312.9l-0.8-1.6h-1.9l-0.8,1.6l0.8,1.6h1.9L235.6,312.9z"/>
	<path class="st0" d="M222.7,316.9l-0.8-1.6h-1.9l-0.8,1.6l0.8,1.6h1.9L222.7,316.9z"/>
	<path class="st0" d="M209.4,319.6l-0.8-1.6h-1.9l-0.8,1.6l0.8,1.6h1.9L209.4,319.6z"/>
	<path class="st0" d="M196,321.1l-0.8-1.6h-1.9l-0.8,1.6l0.8,1.6h1.9L196,321.1z"/>
	<path class="st0" d="M182.4,321.1l-0.8-1.6h-1.9l-0.8,1.6l0.8,1.6h1.9L182.4,321.1z"/>
	<path class="st0" d="M169,319.6l-0.8-1.6h-1.9l-0.8,1.6l0.8,1.6h1.9L169,319.6z"/>
	<path class="st0" d="M155.6,316.9l-0.8-1.6h-1.9l-0.8,1.6l0.8,1.6h1.9L155.6,316.9z"/>
	<path class="st0" d="M142.8,312.9l-0.8-1.6h-1.9l-0.8,1.6l0.8,1.6h1.9L142.8,312.9z"/>
	<path class="st0" d="M130.3,307.6l-0.8-1.6h-1.9l-0.8,1.6l0.8,1.6h1.9L130.3,307.6z"/>
	<path class="st0" d="M118.4,301l-0.8-1.6h-1.9L115,301l0.8,1.6h1.9L118.4,301z"/>
	<path class="st0" d="M107.3,293.3l-0.8-1.6h-1.9l-0.8,1.6l0.8,1.6h1.9L107.3,293.3z"/>
	<path class="st0" d="M97,284.4l-0.8-1.6h-1.9l-0.8,1.6l0.8,1.6h1.9L97,284.4z"/>
	<path class="st0" d="M87.7,274.5l-0.8-1.6H85l-0.8,1.6l0.8,1.6h1.9L87.7,274.5z"/>
	<path class="st0" d="M79.4,263.8l-0.8-1.6h-1.9l-0.8,1.6l0.8,1.6h1.9L79.4,263.8z"/>
	<path class="st0" d="M72.3,252.3l-0.8-1.6h-1.9l-0.8,1.6l0.8,1.6h1.9L72.3,252.3z"/>
	<path class="st0" d="M66.3,240.2l-0.8-1.6h-1.9l-0.8,1.6l0.8,1.6h1.9L66.3,240.2z"/>
	<path class="st0" d="M61.6,227.5l-0.8-1.6h-1.9l-0.8,1.6l0.8,1.6h1.9L61.6,227.5z"/>
	<path class="st0" d="M58.1,214.4l-0.8-1.6h-1.9l-0.8,1.6l0.8,1.6h1.9L58.1,214.4z"/>
	<path class="st0" d="M56.1,201l-0.8-1.6h-1.9l-0.8,1.6l0.8,1.6h1.9L56.1,201z"/>
	<path class="st0" d="M55.5,187.5l-0.8-1.6h-1.9l-0.8,1.6l0.8,1.6h1.9L55.5,187.5z"/>
	<path class="st0" d="M56.1,174l-0.8-1.6h-1.9l-0.8,1.6l0.8,1.6h1.9L56.1,174z"/>
	<path class="st0" d="M58.1,160.6l-0.8-1.6h-1.9l-0.8,1.6l0.8,1.6h1.9L58.1,160.6z"/>
	<path class="st0" d="M61.6,147.5l-0.8-1.6h-1.9l-0.8,1.6l0.8,1.6h1.9L61.6,147.5z"/>
	<path class="st0" d="M66.3,134.8l-0.8-1.6h-1.9l-0.8,1.6l0.8,1.6h1.9L66.3,134.8z"/>
	<path class="st0" d="M72.3,122.7l-0.8-1.6h-1.9l-0.8,1.6l0.8,1.6h1.9L72.3,122.7z"/>
	<path class="st0" d="M79.4,111.2l-0.8-1.6h-1.9l-0.8,1.6l0.8,1.6h1.9L79.4,111.2z"/>
	<path class="st0" d="M87.7,100.5l-0.8-1.6H85l-0.8,1.6l0.8,1.6h1.9L87.7,100.5z"/>
	<path class="st0" d="M97,90.6L96.2,89h-1.9l-0.8,1.6l0.8,1.6h1.9L97,90.6z"/>
	<path class="st0" d="M107.3,81.7l-0.8-1.6h-1.9l-0.8,1.6l0.8,1.6h1.9L107.3,81.7z"/>
	<path class="st0" d="M118.4,74l-0.8-1.6h-1.9L115,74l0.8,1.6h1.9L118.4,74z"/>
	<path class="st0" d="M130.3,67.4l-0.8-1.6h-1.9l-0.8,1.6l0.8,1.6h1.9L130.3,67.4z"/>
	<path class="st0" d="M142.8,62.1l-0.8-1.6h-1.9l-0.8,1.6l0.8,1.6h1.9L142.8,62.1z"/>
	<path class="st0" d="M155.6,58.1l-0.8-1.6h-1.9l-0.8,1.6l0.8,1.6h1.9L155.6,58.1z"/>
	<path class="st0" d="M169,55.4l-0.8-1.6h-1.9l-0.8,1.6l0.8,1.6h1.9L169,55.4z"/>
	<path class="st0" d="M182.4,53.9l-0.8-1.6h-1.9l-0.8,1.6l0.8,1.6h1.9L182.4,53.9z"/>
	<path class="st0" d="M196,53.9l-0.8-1.6h-1.9l-0.8,1.6l0.8,1.6h1.9L196,53.9z"/>
	<path class="st0" d="M209.4,55.4l-0.8-1.6h-1.9l-0.8,1.6l0.8,1.6h1.9L209.4,55.4z"/>
	<path class="st0" d="M222.7,58.1l-0.8-1.6h-1.9l-0.8,1.6l0.8,1.6h1.9L222.7,58.1z"/>
	<path class="st0" d="M235.6,62.1l-0.8-1.6h-1.9l-0.8,1.6l0.8,1.6h1.9L235.6,62.1z"/>
	<path class="st0" d="M248,67.4l-0.8-1.6h-1.9l-0.8,1.6l0.8,1.6h1.9L248,67.4z"/>
	<path class="st0" d="M259.9,74l-0.8-1.6h-1.9l-0.8,1.6l0.8,1.6h1.9L259.9,74z"/>
	<path class="st0" d="M271,81.7l-0.8-1.6h-1.9l-0.8,1.6l0.8,1.6h1.9L271,81.7z"/>
	<path class="st0" d="M281.3,90.6l-0.8-1.6h-1.9l-0.8,1.6l0.8,1.6h1.9L281.3,90.6z"/>
	<path class="st0" d="M290.6,100.5l-0.8-1.6H288l-0.8,1.6l0.8,1.6h1.9L290.6,100.5z"/>
	<path class="st0" d="M298.9,111.2l-0.8-1.6h-1.9l-0.8,1.6l0.8,1.6h1.9L298.9,111.2z"/>
	<path class="st0" d="M306,122.7l-0.8-1.6h-1.9l-0.8,1.6l0.8,1.6h1.9L306,122.7z"/>
	<path class="st0" d="M312,134.8l-0.8-1.6h-1.9l-0.8,1.6l0.8,1.6h1.9L312,134.8z"/>
	<path class="st0" d="M316.7,147.5l-0.8-1.6H314l-0.8,1.6l0.8,1.6h1.9L316.7,147.5z"/>
	<path class="st0" d="M320.2,160.6l-0.8-1.6h-1.9l-0.8,1.6l0.8,1.6h1.9L320.2,160.6z"/>
	<path class="st0" d="M322.2,174l-0.8-1.6h-1.9l-0.8,1.6l0.8,1.6h1.9L322.2,174z"/>
	<path class="st0" d="M322.9,187.5l-0.8-1.6h-1.9l-0.8,1.6l0.8,1.6h1.9L322.9,187.5z"/>
	<path class="st0" d="M336,187.5l-0.8-1.2h-1.3l-0.8,1.2l0.8,1.2h1.3L336,187.5z"/>
	<path class="st0" d="M335.3,200.9l-0.8-1.2h-1.3l-0.8,1.2l0.8,1.2h1.3L335.3,200.9z"/>
	<path class="st0" d="M333.6,214.1l-0.8-1.2h-1.3l-0.8,1.2l0.8,1.2h1.3L333.6,214.1z"/>
	<path class="st0" d="M330.5,227.2l-0.8-1.2h-1.3l-0.8,1.2l0.8,1.2h1.3L330.5,227.2z"/>
	<path class="st0" d="M326.4,239.9l-0.8-1.2h-1.3l-0.8,1.2l0.8,1.2h1.3L326.4,239.9z"/>
	<path class="st0" d="M321,252.2l-0.8-1.2h-1.3l-0.8,1.2l0.8,1.2h1.3L321,252.2z"/>
	<path class="st0" d="M314.6,264l-0.8-1.2h-1.3l-0.8,1.2l0.8,1.2h1.3L314.6,264z"/>
	<path class="st0" d="M307.1,275.1l-0.8-1.2H305l-0.8,1.2l0.8,1.2h1.3L307.1,275.1z"/>
	<path class="st0" d="M298.7,285.4l-0.8-1.2h-1.3l-0.8,1.2l0.8,1.2h1.3L298.7,285.4z"/>
	<path class="st0" d="M289.3,295l-0.8-1.2h-1.3l-0.8,1.2l0.8,1.2h1.3L289.3,295z"/>
	<path class="st0" d="M279.2,303.7l-0.8-1.2H277l-0.8,1.2l0.8,1.2h1.3L279.2,303.7z"/>
	<path class="st0" d="M268.2,311.4l-0.8-1.2h-1.3l-0.8,1.2l0.8,1.2h1.3L268.2,311.4z"/>
	<path class="st0" d="M256.6,318.1l-0.8-1.2h-1.3l-0.8,1.2l0.8,1.2h1.3L256.6,318.1z"/>
	<path class="st0" d="M244.4,323.7l-0.8-1.2h-1.3l-0.8,1.2l0.8,1.2h1.3L244.4,323.7z"/>
	<path class="st0" d="M231.8,328.2l-0.8-1.2h-1.3l-0.8,1.2l0.8,1.2h1.3L231.8,328.2z"/>
	<path class="st0" d="M218.9,331.5l-0.8-1.2h-1.3l-0.8,1.2l0.8,1.2h1.3L218.9,331.5z"/>
	<path class="st0" d="M205.6,333.6l-0.8-1.2h-1.3l-0.8,1.2l0.8,1.2h1.3L205.6,333.6z"/>
	<path class="st0" d="M192.2,334.6l-0.8-1.2h-1.3l-0.8,1.2l0.8,1.2h1.3L192.2,334.6z"/>
	<path class="st0" d="M178.9,334.2l-0.8-1.2h-1.3l-0.8,1.2l0.8,1.2h1.3L178.9,334.2z"/>
	<path class="st0" d="M165.5,332.7l-0.8-1.2h-1.3l-0.8,1.2l0.8,1.2h1.3L165.5,332.7z"/>
	<path class="st0" d="M152.4,330l-0.8-1.2h-1.3l-0.8,1.2l0.8,1.2h1.3L152.4,330z"/>
	<path class="st0" d="M139.7,326l-0.8-1.2h-1.3l-0.8,1.2l0.8,1.2h1.3L139.7,326z"/>
	<path class="st0" d="M127.3,321.1l-0.8-1.2h-1.3l-0.8,1.2l0.8,1.2h1.3L127.3,321.1z"/>
	<path class="st0" d="M115.4,314.9l-0.8-1.2h-1.3l-0.8,1.2l0.8,1.2h1.3L115.4,314.9z"/>
	<path class="st0" d="M104.1,307.7l-0.8-1.2H102l-0.8,1.2l0.8,1.2h1.3L104.1,307.7z"/>
	<path class="st0" d="M93.6,299.4l-0.8-1.2h-1.3l-0.8,1.2l0.8,1.2h1.3L93.6,299.4z"/>
	<path class="st0" d="M83.7,290.3l-0.8-1.2h-1.3l-0.8,1.2l0.8,1.2h1.3L83.7,290.3z"/>
	<path class="st0" d="M74.9,280.3l-0.8-1.2h-1.3l-0.8,1.2l0.8,1.2h1.3L74.9,280.3z"/>
	<path class="st0" d="M66.8,269.6l-0.8-1.2h-1.3l-0.8,1.2l0.8,1.2H66L66.8,269.6z"/>
	<path class="st0" d="M59.9,258.1l-0.8-1.2h-1.3l-0.8,1.2l0.8,1.2h1.3L59.9,258.1z"/>
	<path class="st0" d="M54,246.1l-0.8-1.2h-1.3l-0.8,1.2l0.8,1.2h1.3L54,246.1z"/>
	<path class="st0" d="M49.2,233.6l-0.8-1.2H47l-0.8,1.2l0.8,1.2h1.3L49.2,233.6z"/>
	<path class="st0" d="M45.6,220.7l-0.8-1.2h-1.3l-0.8,1.2l0.8,1.2h1.3L45.6,220.7z"/>
	<path class="st0" d="M43.2,207.6l-0.8-1.2H41l-0.8,1.2l0.8,1.2h1.3L43.2,207.6z"/>
	<path class="st0" d="M42,194.2l-0.8-1.2h-1.3l-0.8,1.2l0.8,1.2h1.3L42,194.2z"/>
	<path class="st0" d="M42,180.8l-0.8-1.2h-1.3l-0.8,1.2l0.8,1.2h1.3L42,180.8z"/>
	<path class="st0" d="M43.2,167.4l-0.8-1.2H41l-0.8,1.2l0.8,1.2h1.3L43.2,167.4z"/>
	<path class="st0" d="M45.6,154.3l-0.8-1.2h-1.3l-0.8,1.2l0.8,1.2h1.3L45.6,154.3z"/>
	<path class="st0" d="M49.2,141.4l-0.8-1.2H47l-0.8,1.2l0.8,1.2h1.3L49.2,141.4z"/>
	<path class="st0" d="M54,128.9l-0.8-1.2h-1.3l-0.8,1.2l0.8,1.2h1.3L54,128.9z"/>
	<path class="st0" d="M59.9,116.9l-0.8-1.2h-1.3l-0.8,1.2l0.8,1.2h1.3L59.9,116.9z"/>
	<path class="st0" d="M66.8,105.4l-0.8-1.2h-1.3l-0.8,1.2l0.8,1.2H66L66.8,105.4z"/>
	<path class="st0" d="M74.9,94.7l-0.8-1.2h-1.3l-0.8,1.2l0.8,1.2h1.3L74.9,94.7z"/>
	<path class="st0" d="M83.7,84.7l-0.8-1.2h-1.3l-0.8,1.2l0.8,1.2h1.3L83.7,84.7z"/>
	<path class="st0" d="M93.6,75.6l-0.8-1.2h-1.3l-0.8,1.2l0.8,1.2h1.3L93.6,75.6z"/>
	<path class="st0" d="M104.1,67.3l-0.8-1.2H102l-0.8,1.2l0.8,1.2h1.3L104.1,67.3z"/>
	<path class="st0" d="M115.4,60.1l-0.8-1.2h-1.3l-0.8,1.2l0.8,1.2h1.3L115.4,60.1z"/>
	<path class="st0" d="M127.3,53.9l-0.8-1.2h-1.3l-0.8,1.2l0.8,1.2h1.3L127.3,53.9z"/>
	<path class="st0" d="M139.7,49l-0.8-1.2h-1.3l-0.8,1.2l0.8,1.2h1.3L139.7,49z"/>
	<path class="st0" d="M152.4,45l-0.8-1.2h-1.3l-0.8,1.2l0.8,1.2h1.3L152.4,45z"/>
	<path class="st0" d="M165.5,42.3l-0.8-1.2h-1.3l-0.8,1.2l0.8,1.2h1.3L165.5,42.3z"/>
	<path class="st0" d="M178.9,40.8l-0.8-1.2h-1.3l-0.8,1.2l0.8,1.2h1.3L178.9,40.8z"/>
	<path class="st0" d="M192.2,40.4l-0.8-1.2h-1.3l-0.8,1.2l0.8,1.2h1.3L192.2,40.4z"/>
	<path class="st0" d="M205.6,41.4l-0.8-1.2h-1.3l-0.8,1.2l0.8,1.2h1.3L205.6,41.4z"/>
	<path class="st0" d="M218.9,43.5l-0.8-1.2h-1.3l-0.8,1.2l0.8,1.2h1.3L218.9,43.5z"/>
	<path class="st0" d="M231.8,46.8l-0.8-1.2h-1.3l-0.8,1.2l0.8,1.2h1.3L231.8,46.8z"/>
	<path class="st0" d="M244.4,51.3l-0.8-1.2h-1.3l-0.8,1.2l0.8,1.2h1.3L244.4,51.3z"/>
	<path class="st0" d="M256.6,56.9l-0.8-1.2h-1.3l-0.8,1.2l0.8,1.2h1.3L256.6,56.9z"/>
	<path class="st0" d="M268.2,63.6l-0.8-1.2h-1.3l-0.8,1.2l0.8,1.2h1.3L268.2,63.6z"/>
	<path class="st0" d="M279.2,71.3l-0.8-1.2H277l-0.8,1.2l0.8,1.2h1.3L279.2,71.3z"/>
	<path class="st0" d="M289.3,80l-0.8-1.2h-1.3l-0.8,1.2l0.8,1.2h1.3L289.3,80z"/>
	<path class="st0" d="M298.7,89.6l-0.8-1.2h-1.3l-0.8,1.2l0.8,1.2h1.3L298.7,89.6z"/>
	<path class="st0" d="M307.1,99.9l-0.8-1.2H305l-0.8,1.2l0.8,1.2h1.3L307.1,99.9z"/>
	<path class="st0" d="M314.6,111l-0.8-1.2h-1.3l-0.8,1.2l0.8,1.2h1.3L314.6,111z"/>
	<path class="st0" d="M321,122.8l-0.8-1.2h-1.3l-0.8,1.2l0.8,1.2h1.3L321,122.8z"/>
	<path class="st0" d="M326.4,135.1l-0.8-1.2h-1.3l-0.8,1.2l0.8,1.2h1.3L326.4,135.1z"/>
	<path class="st0" d="M330.5,147.8l-0.8-1.2h-1.3l-0.8,1.2l0.8,1.2h1.3L330.5,147.8z"/>
	<path class="st0" d="M333.6,160.9l-0.8-1.2h-1.3l-0.8,1.2l0.8,1.2h1.3L333.6,160.9z"/>
	<path class="st0" d="M335.3,174.1l-0.8-1.2h-1.3l-0.8,1.2l0.8,1.2h1.3L335.3,174.1z"/>
	<path class="st0" d="M336,187.5l-0.8-1.2h-1.3l-0.8,1.2l0.8,1.2h1.3L336,187.5z"/>
	<path class="st0" d="M348.9,187.5l-0.5-0.9h-1.1l-0.5,0.9l0.5,0.9h1.1L348.9,187.5z"/>
	<path class="st0" d="M348.4,200.9l-0.5-0.9h-1.1l-0.5,0.9l0.5,0.9h1.1L348.4,200.9z"/>
	<path class="st0" d="M346.7,214.2l-0.5-0.9h-1.1l-0.5,0.9l0.5,0.9h1.1L346.7,214.2z"/>
	<path class="st0" d="M343.9,227.3l-0.5-0.9h-1.1l-0.5,0.9l0.5,0.9h1.1L343.9,227.3z"/>
	<path class="st0" d="M340,240.3l-0.5-0.9h-1.1l-0.5,0.9l0.5,0.9h1.1L340,240.3z"/>
	<path class="st0" d="M335,252.8l-0.5-0.9h-1.1l-0.5,0.9l0.5,0.9h1.1L335,252.8z"/>
	<path class="st0" d="M329.2,264.8l-0.5-0.9h-1.1l-0.5,0.9l0.5,0.9h1.1L329.2,264.8z"/>
	<path class="st0" d="M322.2,276.3l-0.5-0.9h-1.1l-0.5,0.9l0.5,0.9h1.1L322.2,276.3z"/>
	<path class="st0" d="M314.2,287.1l-0.5-0.9h-1.1l-0.5,0.9l0.5,0.9h1.1L314.2,287.1z"/>
	<path class="st0" d="M305.5,297.3l-0.5-0.9h-1.1l-0.5,0.9l0.5,0.9h1.1L305.5,297.3z"/>
	<path class="st0" d="M295.9,306.8l-0.5-0.9h-1.1l-0.5,0.9l0.5,0.9h1.1L295.9,306.8z"/>
	<path class="st0" d="M285.6,315.3l-0.5-0.9H284l-0.5,0.9l0.5,0.9h1.1L285.6,315.3z"/>
	<path class="st0" d="M274.5,322.9l-0.5-0.9h-1.1l-0.5,0.9l0.5,0.9h1.1L274.5,322.9z"/>
	<path class="st0" d="M262.8,329.6l-0.5-0.9h-1.1l-0.5,0.9l0.5,0.9h1.1L262.8,329.6z"/>
	<path class="st0" d="M250.7,335.4l-0.5-0.9h-1.1l-0.5,0.9l0.5,0.9h1.1L250.7,335.4z"/>
	<path class="st0" d="M238.1,340.1l-0.5-0.9h-1.1l-0.5,0.9l0.5,0.9h1.1L238.1,340.1z"/>
	<path class="st0" d="M225.1,343.7l-0.5-0.9h-1.1l-0.5,0.9l0.5,0.9h1.1L225.1,343.7z"/>
	<path class="st0" d="M211.9,346.2l-0.5-0.9h-1.1l-0.5,0.9l0.5,0.9h1.1L211.9,346.2z"/>
	<path class="st0" d="M198.5,347.7l-0.5-0.9h-1.1l-0.5,0.9l0.5,0.9h1.1L198.5,347.7z"/>
	<path class="st0" d="M185.2,347.9l-0.5-0.9h-1.1l-0.5,0.9l0.5,0.9h1.1L185.2,347.9z"/>
	<path class="st0" d="M171.8,347l-0.5-0.9h-1.1l-0.5,0.9l0.5,0.9h1.1L171.8,347z"/>
	<path class="st0" d="M158.4,345.1l-0.5-0.9h-1.1l-0.5,0.9l0.5,0.9h1.1L158.4,345.1z"/>
	<path class="st0" d="M145.3,342.1l-0.5-0.9h-1.1l-0.5,0.9l0.5,0.9h1.1L145.3,342.1z"/>
	<path class="st0" d="M132.6,337.9l-0.5-0.9H131l-0.5,0.9l0.5,0.9h1.1L132.6,337.9z"/>
	<path class="st0" d="M120.2,332.7l-0.5-0.9h-1.1l-0.5,0.9l0.5,0.9h1.1L120.2,332.7z"/>
	<path class="st0" d="M108.3,326.4l-0.5-0.9h-1.1l-0.5,0.9l0.5,0.9h1.1L108.3,326.4z"/>
	<path class="st0" d="M96.9,319.2l-0.5-0.9h-1.1l-0.5,0.9l0.5,0.9h1.1L96.9,319.2z"/>
	<path class="st0" d="M86.2,311.2l-0.5-0.9h-1.1l-0.5,0.9l0.5,0.9h1.1L86.2,311.2z"/>
	<path class="st0" d="M76.2,302.1l-0.5-0.9h-1.1l-0.5,0.9l0.5,0.9h1.1L76.2,302.1z"/>
	<path class="st0" d="M67.1,292.3l-0.5-0.9h-1.1l-0.5,0.9l0.5,0.9h1.1L67.1,292.3z"/>
	<path class="st0" d="M58.7,281.8l-0.5-0.9h-1.1l-0.5,0.9l0.5,0.9h1.1L58.7,281.8z"/>
	<path class="st0" d="M51.3,270.7l-0.5-0.9h-1.1l-0.5,0.9l0.5,0.9h1.1L51.3,270.7z"/>
	<path class="st0" d="M44.8,258.9l-0.5-0.9h-1.1l-0.5,0.9l0.5,0.9h1.1L44.8,258.9z"/>
	<path class="st0" d="M39.3,246.6l-0.5-0.9h-1.1l-0.5,0.9l0.5,0.9h1.1L39.3,246.6z"/>
	<path class="st0" d="M34.9,233.9l-0.5-0.9h-1.1l-0.5,0.9l0.5,0.9h1.1L34.9,233.9z"/>
	<path class="st0" d="M31.5,220.8l-0.5-0.9h-1.1l-0.5,0.9l0.5,0.9H31L31.5,220.8z"/>
	<path class="st0" d="M29.3,207.6l-0.5-0.9h-1.1l-0.5,0.9l0.5,0.9h1.1L29.3,207.6z"/>
	<path class="st0" d="M28.2,194.2l-0.5-0.9h-1.1l-0.5,0.9l0.5,0.9h1.1L28.2,194.2z"/>
	<path class="st0" d="M28.2,180.8l-0.5-0.9h-1.1l-0.5,0.9l0.5,0.9h1.1L28.2,180.8z"/>
	<path class="st0" d="M29.3,167.4l-0.5-0.9h-1.1l-0.5,0.9l0.5,0.9h1.1L29.3,167.4z"/>
	<path class="st0" d="M31.5,154.2l-0.5-0.9h-1.1l-0.5,0.9l0.5,0.9H31L31.5,154.2z"/>
	<path class="st0" d="M34.9,141.1l-0.5-0.9h-1.1l-0.5,0.9l0.5,0.9h1.1L34.9,141.1z"/>
	<path class="st0" d="M39.3,128.4l-0.5-0.9h-1.1l-0.5,0.9l0.5,0.9h1.1L39.3,128.4z"/>
	<path class="st0" d="M44.8,116.1l-0.5-0.9h-1.1l-0.5,0.9l0.5,0.9h1.1L44.8,116.1z"/>
	<path class="st0" d="M51.3,104.3l-0.5-0.9h-1.1l-0.5,0.9l0.5,0.9h1.1L51.3,104.3z"/>
	<path class="st0" d="M58.7,93.2l-0.5-0.9h-1.1l-0.5,0.9l0.5,0.9h1.1L58.7,93.2z"/>
	<path class="st0" d="M67.1,82.7l-0.5-0.9h-1.1L65,82.7l0.5,0.9h1.1L67.1,82.7z"/>
	<path class="st0" d="M76.2,72.9L75.7,72h-1.1l-0.5,0.9l0.5,0.9h1.1L76.2,72.9z"/>
	<path class="st0" d="M86.2,63.8l-0.5-0.9h-1.1l-0.5,0.9l0.5,0.9h1.1L86.2,63.8z"/>
	<path class="st0" d="M96.9,55.8l-0.5-0.9h-1.1l-0.5,0.9l0.5,0.9h1.1L96.9,55.8z"/>
	<path class="st0" d="M108.3,48.6l-0.5-0.9h-1.1l-0.5,0.9l0.5,0.9h1.1L108.3,48.6z"/>
	<path class="st0" d="M120.2,42.3l-0.5-0.9h-1.1l-0.5,0.9l0.5,0.9h1.1L120.2,42.3z"/>
	<path class="st0" d="M132.6,37.1l-0.5-0.9H131l-0.5,0.9L131,38h1.1L132.6,37.1z"/>
	<path class="st0" d="M145.3,32.9l-0.5-0.9h-1.1l-0.5,0.9l0.5,0.9h1.1L145.3,32.9z"/>
	<path class="st0" d="M158.4,29.9l-0.5-0.9h-1.1l-0.5,0.9l0.5,0.9h1.1L158.4,29.9z"/>
	<path class="st0" d="M171.8,28l-0.5-0.9h-1.1l-0.5,0.9l0.5,0.9h1.1L171.8,28z"/>
	<path class="st0" d="M185.2,27.1l-0.5-0.9h-1.1l-0.5,0.9l0.5,0.9h1.1L185.2,27.1z"/>
	<path class="st0" d="M198.5,27.3l-0.5-0.9h-1.1l-0.5,0.9l0.5,0.9h1.1L198.5,27.3z"/>
	<path class="st0" d="M211.9,28.8l-0.5-0.9h-1.1l-0.5,0.9l0.5,0.9h1.1L211.9,28.8z"/>
	<path class="st0" d="M225.1,31.3l-0.5-0.9h-1.1l-0.5,0.9l0.5,0.9h1.1L225.1,31.3z"/>
	<path class="st0" d="M238.1,34.9l-0.5-0.9h-1.1l-0.5,0.9l0.5,0.9h1.1L238.1,34.9z"/>
	<path class="st0" d="M250.7,39.6l-0.5-0.9h-1.1l-0.5,0.9l0.5,0.9h1.1L250.7,39.6z"/>
	<path class="st0" d="M262.8,45.4l-0.5-0.9h-1.1l-0.5,0.9l0.5,0.9h1.1L262.8,45.4z"/>
	<path class="st0" d="M274.5,52.1l-0.5-0.9h-1.1l-0.5,0.9l0.5,0.9h1.1L274.5,52.1z"/>
	<path class="st0" d="M285.6,59.7l-0.5-0.9H284l-0.5,0.9l0.5,0.9h1.1L285.6,59.7z"/>
	<path class="st0" d="M295.9,68.2l-0.5-0.9h-1.1l-0.5,0.9l0.5,0.9h1.1L295.9,68.2z"/>
	<path class="st0" d="M305.5,77.7l-0.5-0.9h-1.1l-0.5,0.9l0.5,0.9h1.1L305.5,77.7z"/>
	<path class="st0" d="M314.2,87.9l-0.5-0.9h-1.1l-0.5,0.9l0.5,0.9h1.1L314.2,87.9z"/>
	<path class="st0" d="M322.2,98.7l-0.5-0.9h-1.1l-0.5,0.9l0.5,0.9h1.1L322.2,98.7z"/>
	<path class="st0" d="M329.2,110.2l-0.5-0.9h-1.1l-0.5,0.9l0.5,0.9h1.1L329.2,110.2z"/>
	<path class="st0" d="M335,122.3l-0.5-0.9h-1.1l-0.5,0.9l0.5,0.9h1.1L335,122.3z"/>
	<path class="st0" d="M340,134.7l-0.5-0.9h-1.1l-0.5,0.9l0.5,0.9h1.1L340,134.7z"/>
	<path class="st0" d="M343.9,147.7l-0.5-0.9h-1.1l-0.5,0.9l0.5,0.9h1.1L343.9,147.7z"/>
	<path class="st0" d="M346.7,160.8l-0.5-0.9h-1.1l-0.5,0.9l0.5,0.9h1.1L346.7,160.8z"/>
	<path class="st0" d="M348.4,174.1l-0.5-0.9h-1.1l-0.5,0.9l0.5,0.9h1.1L348.4,174.1z"/>
	<path class="st0" d="M348.9,187.5l-0.5-0.9h-1.1l-0.5,0.9l0.5,0.9h1.1L348.9,187.5z"/>
	<path class="st0" d="M361.9,187.5l-0.3-0.7h-0.8l-0.3,0.7l0.3,0.7h0.8L361.9,187.5z"/>
	<path class="st0" d="M361.4,201l-0.3-0.7h-0.8L360,201l0.3,0.7h0.8L361.4,201z"/>
	<path class="st0" d="M359.8,214.4l-0.3-0.7h-0.8l-0.3,0.7l0.3,0.7h0.8L359.8,214.4z"/>
	<path class="st0" d="M357.2,227.6l-0.3-0.7h-0.8l-0.3,0.7l0.3,0.7h0.8L357.2,227.6z"/>
	<path class="st0" d="M353.6,240.6l-0.3-0.7h-0.8l-0.3,0.7l0.3,0.7h0.8L353.6,240.6z"/>
	<path class="st0" d="M348.9,253.3l-0.3-0.7h-0.8l-0.3,0.7l0.3,0.7h0.8L348.9,253.3z"/>
	<path class="st0" d="M343.5,265.4l-0.3-0.7h-0.8l-0.3,0.7l0.3,0.7h0.8L343.5,265.4z"/>
	<path class="st0" d="M336.9,277.3l-0.3-0.7h-0.8l-0.3,0.7l0.3,0.7h0.8L336.9,277.3z"/>
	<path class="st0" d="M329.6,288.6l-0.3-0.7h-0.8l-0.3,0.7l0.3,0.7h0.8L329.6,288.6z"/>
	<path class="st0" d="M321.3,299.3l-0.3-0.7h-0.8l-0.3,0.7l0.3,0.7h0.8L321.3,299.3z"/>
	<path class="st0" d="M312.2,309.2l-0.3-0.7h-0.8l-0.3,0.7l0.3,0.7h0.8L312.2,309.2z"/>
	<path class="st0" d="M302.4,318.4l-0.3-0.7h-0.8l-0.3,0.7l0.3,0.7h0.8L302.4,318.4z"/>
	<path class="st0" d="M291.9,326.9l-0.3-0.7h-0.8l-0.3,0.7l0.3,0.7h0.8L291.9,326.9z"/>
	<path class="st0" d="M280.8,334.6l-0.3-0.7h-0.8l-0.3,0.7l0.3,0.7h0.8L280.8,334.6z"/>
	<path class="st0" d="M269.1,341.3l-0.3-0.7h-0.8l-0.3,0.7l0.3,0.7h0.8L269.1,341.3z"/>
	<path class="st0" d="M257,347.1l-0.3-0.7h-0.8l-0.3,0.7l0.3,0.7h0.8L257,347.1z"/>
	<path class="st0" d="M244.4,352l-0.3-0.7h-0.8l-0.3,0.7l0.3,0.7h0.8L244.4,352z"/>
	<path class="st0" d="M231.4,355.8l-0.3-0.7h-0.8l-0.3,0.7l0.3,0.7h0.8L231.4,355.8z"/>
	<path class="st0" d="M218.3,358.6l-0.3-0.7h-0.8l-0.3,0.7l0.3,0.7h0.8L218.3,358.6z"/>
	<path class="st0" d="M205,360.5l-0.3-0.7h-0.8l-0.3,0.7l0.3,0.7h0.8L205,360.5z"/>
	<path class="st0" d="M191.4,361.3l-0.3-0.7h-0.8l-0.3,0.7l0.3,0.7h0.8L191.4,361.3z"/>
	<path class="st0" d="M177.9,361l-0.3-0.7h-0.8l-0.3,0.7l0.3,0.7h0.8L177.9,361z"/>
	<path class="st0" d="M164.6,359.7l-0.3-0.7h-0.8l-0.3,0.7l0.3,0.7h0.8L164.6,359.7z"/>
	<path class="st0" d="M151.3,357.4l-0.3-0.7h-0.8l-0.3,0.7l0.3,0.7h0.8L151.3,357.4z"/>
	<path class="st0" d="M138.2,354l-0.3-0.7h-0.8l-0.3,0.7l0.3,0.7h0.8L138.2,354z"/>
	<path class="st0" d="M125.5,349.7l-0.3-0.7h-0.8l-0.3,0.7l0.3,0.7h0.8L125.5,349.7z"/>
	<path class="st0" d="M113.1,344.3l-0.3-0.7H112l-0.3,0.7l0.3,0.7h0.8L113.1,344.3z"/>
	<path class="st0" d="M101.2,338.1l-0.3-0.7h-0.8l-0.3,0.7l0.3,0.7h0.8L101.2,338.1z"/>
	<path class="st0" d="M89.8,330.8l-0.3-0.7h-0.8l-0.3,0.7l0.3,0.7h0.8L89.8,330.8z"/>
	<path class="st0" d="M79,322.8l-0.3-0.7h-0.8l-0.3,0.7l0.3,0.7h0.8L79,322.8z"/>
	<path class="st0" d="M68.8,314l-0.3-0.7h-0.8l-0.3,0.7l0.3,0.7h0.8L68.8,314z"/>
	<path class="st0" d="M59.3,304.4l-0.3-0.7h-0.8l-0.3,0.7l0.3,0.7h0.8L59.3,304.4z"/>
	<path class="st0" d="M50.7,293.9l-0.3-0.7h-0.8l-0.3,0.7l0.3,0.7h0.8L50.7,293.9z"/>
	<path class="st0" d="M42.9,283l-0.3-0.7h-0.8l-0.3,0.7l0.3,0.7h0.8L42.9,283z"/>
	<path class="st0" d="M35.9,271.5l-0.3-0.7h-0.8l-0.3,0.7l0.3,0.7h0.8L35.9,271.5z"/>
	<path class="st0" d="M29.9,259.4l-0.3-0.7h-0.8l-0.3,0.7l0.3,0.7h0.8L29.9,259.4z"/>
	<path class="st0" d="M24.7,247l-0.3-0.7h-0.8l-0.3,0.7l0.3,0.7h0.8L24.7,247z"/>
	<path class="st0" d="M20.7,234.2l-0.3-0.7h-0.8l-0.3,0.7l0.3,0.7h0.8L20.7,234.2z"/>
	<path class="st0" d="M17.5,221.1l-0.3-0.7h-0.8l-0.3,0.7l0.3,0.7h0.8L17.5,221.1z"/>
	<path class="st0" d="M15.5,207.7l-0.3-0.7h-0.8l-0.3,0.7l0.3,0.7h0.8L15.5,207.7z"/>
	<path class="st0" d="M14.4,194.2l-0.3-0.7h-0.8l-0.3,0.7l0.3,0.7h0.8L14.4,194.2z"/>
	<path class="st0" d="M14.4,180.8l-0.3-0.7h-0.8l-0.3,0.7l0.3,0.7h0.8L14.4,180.8z"/>
	<path class="st0" d="M15.5,167.3l-0.3-0.7h-0.8l-0.3,0.7l0.3,0.7h0.8L15.5,167.3z"/>
	<path class="st0" d="M17.5,153.9l-0.3-0.7h-0.8l-0.3,0.7l0.3,0.7h0.8L17.5,153.9z"/>
	<path class="st0" d="M20.7,140.8l-0.3-0.7h-0.8l-0.3,0.7l0.3,0.7h0.8L20.7,140.8z"/>
	<path class="st0" d="M24.7,128l-0.3-0.7h-0.8l-0.3,0.7l0.3,0.7h0.8L24.7,128z"/>
	<path class="st0" d="M29.9,115.6l-0.3-0.7h-0.8l-0.3,0.7l0.3,0.7h0.8L29.9,115.6z"/>
	<path class="st0" d="M35.9,103.5l-0.3-0.7h-0.8l-0.3,0.7l0.3,0.7h0.8L35.9,103.5z"/>
	<path class="st0" d="M42.9,92l-0.3-0.7h-0.8L41.6,92l0.3,0.7h0.8L42.9,92z"/>
	<path class="st0" d="M50.7,81.1l-0.3-0.7h-0.8l-0.3,0.7l0.3,0.7h0.8L50.7,81.1z"/>
	<path class="st0" d="M59.3,70.6L59.1,70h-0.8L58,70.6l0.3,0.7h0.8L59.3,70.6z"/>
	<path class="st0" d="M68.8,61l-0.3-0.7h-0.8L67.5,61l0.3,0.7h0.8L68.8,61z"/>
	<path class="st0" d="M79,52.2l-0.3-0.7h-0.8l-0.3,0.7l0.3,0.7h0.8L79,52.2z"/>
	<path class="st0" d="M89.8,44.2l-0.3-0.7h-0.8l-0.3,0.7l0.3,0.7h0.8L89.8,44.2z"/>
	<path class="st0" d="M101.2,36.9l-0.3-0.7h-0.8l-0.3,0.7l0.3,0.7h0.8L101.2,36.9z"/>
	<path class="st0" d="M113.1,30.7l-0.3-0.7H112l-0.3,0.7l0.3,0.7h0.8L113.1,30.7z"/>
	<path class="st0" d="M125.5,25.3l-0.3-0.7h-0.8l-0.3,0.7l0.3,0.7h0.8L125.5,25.3z"/>
	<path class="st0" d="M138.2,21l-0.3-0.7h-0.8l-0.3,0.7l0.3,0.7h0.8L138.2,21z"/>
	<path class="st0" d="M151.3,17.6l-0.3-0.7h-0.8l-0.3,0.7l0.3,0.7h0.8L151.3,17.6z"/>
	<path class="st0" d="M164.6,15.3l-0.3-0.7h-0.8l-0.3,0.7l0.3,0.7h0.8L164.6,15.3z"/>
	<path class="st0" d="M177.9,14l-0.3-0.7h-0.8l-0.3,0.7l0.3,0.7h0.8L177.9,14z"/>
	<path class="st0" d="M191.4,13.7l-0.3-0.7h-0.8l-0.3,0.7l0.3,0.7h0.8L191.4,13.7z"/>
	<path class="st0" d="M205,14.5l-0.3-0.7h-0.8l-0.3,0.7l0.3,0.7h0.8L205,14.5z"/>
	<path class="st0" d="M218.3,16.4l-0.3-0.7h-0.8l-0.3,0.7l0.3,0.7h0.8L218.3,16.4z"/>
	<path class="st0" d="M231.4,19.2l-0.3-0.7h-0.8l-0.3,0.7l0.3,0.7h0.8L231.4,19.2z"/>
	<path class="st0" d="M244.4,23l-0.3-0.7h-0.8l-0.3,0.7l0.3,0.7h0.8L244.4,23z"/>
	<path class="st0" d="M257,27.9l-0.3-0.7h-0.8l-0.3,0.7l0.3,0.7h0.8L257,27.9z"/>
	<path class="st0" d="M269.1,33.7l-0.3-0.7h-0.8l-0.3,0.7l0.3,0.7h0.8L269.1,33.7z"/>
	<path class="st0" d="M280.8,40.4l-0.3-0.7h-0.8l-0.3,0.7l0.3,0.7h0.8L280.8,40.4z"/>
	<path class="st0" d="M291.9,48.1l-0.3-0.7h-0.8l-0.3,0.7l0.3,0.7h0.8L291.9,48.1z"/>
	<path class="st0" d="M302.4,56.6l-0.3-0.7h-0.8l-0.3,0.7l0.3,0.7h0.8L302.4,56.6z"/>
	<path class="st0" d="M312.2,65.8l-0.3-0.7h-0.8l-0.3,0.7l0.3,0.7h0.8L312.2,65.8z"/>
	<path class="st0" d="M321.3,75.7l-0.3-0.7h-0.8l-0.3,0.7l0.3,0.7h0.8L321.3,75.7z"/>
	<path class="st0" d="M329.6,86.4l-0.3-0.7h-0.8l-0.3,0.7l0.3,0.7h0.8L329.6,86.4z"/>
	<path class="st0" d="M336.9,97.7l-0.3-0.7h-0.8l-0.3,0.7l0.3,0.7h0.8L336.9,97.7z"/>
	<path class="st0" d="M343.5,109.6l-0.3-0.7h-0.8l-0.3,0.7l0.3,0.7h0.8L343.5,109.6z"/>
	<path class="st0" d="M348.9,121.7l-0.3-0.7h-0.8l-0.3,0.7l0.3,0.7h0.8L348.9,121.7z"/>
	<path class="st0" d="M353.6,134.4l-0.3-0.7h-0.8l-0.3,0.7l0.3,0.7h0.8L353.6,134.4z"/>
	<path class="st0" d="M357.2,147.4l-0.3-0.7h-0.8l-0.3,0.7l0.3,0.7h0.8L357.2,147.4z"/>
	<path class="st0" d="M359.8,160.6l-0.3-0.7h-0.8l-0.3,0.7l0.3,0.7h0.8L359.8,160.6z"/>
	<path class="st0" d="M361.4,174l-0.3-0.7h-0.8L360,174l0.3,0.7h0.8L361.4,174z"/>
	<path class="st0" d="M361.9,187.5l-0.3-0.7h-0.8l-0.3,0.7l0.3,0.7h0.8L361.9,187.5z"/>
	<path class="st0" d="M375,187.5l-0.3-0.3h-0.3l-0.3,0.3l0.3,0.3h0.3L375,187.5z"/>
	<path class="st0" d="M374.5,201l-0.3-0.3h-0.3l-0.3,0.3l0.3,0.3h0.3L374.5,201z"/>
	<path class="st0" d="M373,214.5l-0.3-0.3h-0.3l-0.3,0.3l0.3,0.3h0.3L373,214.5z"/>
	<path class="st0" d="M370.6,227.7l-0.3-0.3h-0.3l-0.3,0.3l0.3,0.3h0.3L370.6,227.7z"/>
	<path class="st0" d="M367.3,240.8l-0.3-0.3h-0.3l-0.3,0.3l0.3,0.3h0.3L367.3,240.8z"/>
	<path class="st0" d="M363,253.7l-0.3-0.3h-0.3l-0.3,0.3l0.3,0.3h0.3L363,253.7z"/>
	<path class="st0" d="M357.8,266.1l-0.3-0.3h-0.3l-0.3,0.3l0.3,0.3h0.3L357.8,266.1z"/>
	<path class="st0" d="M351.6,278.2l-0.3-0.3h-0.3l-0.3,0.3l0.3,0.3h0.3L351.6,278.2z"/>
	<path class="st0" d="M344.7,289.8l-0.3-0.3h-0.3l-0.3,0.3l0.3,0.3h0.3L344.7,289.8z"/>
	<path class="st0" d="M336.9,300.8l-0.3-0.3h-0.3l-0.3,0.3l0.3,0.3h0.3L336.9,300.8z"/>
	<path class="st0" d="M328.2,311.2l-0.3-0.3h-0.3l-0.3,0.3l0.3,0.3h0.3L328.2,311.2z"/>
	<path class="st0" d="M319,321.1l-0.3-0.3h-0.3l-0.3,0.3l0.3,0.3h0.3L319,321.1z"/>
	<path class="st0" d="M309,330.2l-0.3-0.3h-0.3l-0.3,0.3l0.3,0.3h0.3L309,330.2z"/>
	<path class="st0" d="M298.4,338.6l-0.3-0.3h-0.3l-0.3,0.3l0.3,0.3h0.3L298.4,338.6z"/>
	<path class="st0" d="M287.2,346.1l-0.3-0.3h-0.3l-0.3,0.3l0.3,0.3h0.3L287.2,346.1z"/>
	<path class="st0" d="M275.5,352.9l-0.3-0.3H275l-0.3,0.3l0.3,0.3h0.3L275.5,352.9z"/>
	<path class="st0" d="M263.4,358.8l-0.3-0.3h-0.3l-0.3,0.3l0.3,0.3h0.3L263.4,358.8z"/>
	<path class="st0" d="M250.8,363.7l-0.3-0.3h-0.3l-0.3,0.3l0.3,0.3h0.3L250.8,363.7z"/>
	<path class="st0" d="M238,367.9l-0.3-0.3h-0.3l-0.3,0.3l0.3,0.3h0.3L238,367.9z"/>
	<path class="st0" d="M224.7,370.9l-0.3-0.3h-0.3l-0.3,0.3l0.3,0.3h0.3L224.7,370.9z"/>
	<path class="st0" d="M211.4,373.2l-0.3-0.3h-0.3l-0.3,0.3l0.3,0.3h0.3L211.4,373.2z"/>
	<path class="st0" d="M198,374.4l-0.3-0.3h-0.3l-0.3,0.3l0.3,0.3h0.3L198,374.4z"/>
	<path class="st0" d="M184.5,374.7l-0.3-0.3H184l-0.3,0.3l0.3,0.3h0.3L184.5,374.7z"/>
	<path class="st0" d="M171,373.9l-0.3-0.3h-0.3l-0.3,0.3l0.3,0.3h0.3L171,373.9z"/>
	<path class="st0" d="M157.6,372.3l-0.3-0.3h-0.3l-0.3,0.3l0.3,0.3h0.3L157.6,372.3z"/>
	<path class="st0" d="M144.3,369.6l-0.3-0.3h-0.3l-0.3,0.3l0.3,0.3h0.3L144.3,369.6z"/>
	<path class="st0" d="M131.3,366l-0.3-0.3h-0.3l-0.3,0.3l0.3,0.3h0.3L131.3,366z"/>
	<path class="st0" d="M118.6,361.4l-0.3-0.3H118l-0.3,0.3l0.3,0.3h0.3L118.6,361.4z"/>
	<path class="st0" d="M106.1,356l-0.3-0.3h-0.3l-0.3,0.3l0.3,0.3h0.3L106.1,356z"/>
	<path class="st0" d="M94.2,349.5l-0.3-0.3h-0.3l-0.3,0.3l0.3,0.3H94L94.2,349.5z"/>
	<path class="st0" d="M82.7,342.5l-0.3-0.3h-0.3l-0.3,0.3l0.3,0.3h0.3L82.7,342.5z"/>
	<path class="st0" d="M71.9,334.4l-0.3-0.3h-0.3l-0.3,0.3l0.3,0.3h0.3L71.9,334.4z"/>
	<path class="st0" d="M61.6,325.8l-0.3-0.3h-0.3l-0.3,0.3l0.3,0.3h0.3L61.6,325.8z"/>
	<path class="st0" d="M52,316.3l-0.3-0.3h-0.3l-0.3,0.3l0.3,0.3h0.3L52,316.3z"/>
	<path class="st0" d="M43,306.1l-0.3-0.3h-0.3l-0.3,0.3l0.3,0.3h0.3L43,306.1z"/>
	<path class="st0" d="M34.9,295.3l-0.3-0.3h-0.3l-0.3,0.3l0.3,0.3h0.3L34.9,295.3z"/>
	<path class="st0" d="M27.4,284l-0.3-0.3h-0.3l-0.3,0.3l0.3,0.3h0.3L27.4,284z"/>
	<path class="st0" d="M20.8,272.1l-0.3-0.3h-0.3l-0.3,0.3l0.3,0.3h0.3L20.8,272.1z"/>
	<path class="st0" d="M15.2,260l-0.3-0.3h-0.3l-0.3,0.3l0.3,0.3H15L15.2,260z"/>
	<path class="st0" d="M10.4,247.3l-0.3-0.3H9.9l-0.3,0.3l0.3,0.3h0.3L10.4,247.3z"/>
	<path class="st0" d="M6.5,234.3L6.3,234H6l-0.3,0.3l0.3,0.3h0.3L6.5,234.3z"/>
	<path class="st0" d="M3.7,221.1l-0.3-0.3H3.2l-0.3,0.3l0.3,0.3h0.3L3.7,221.1z"/>
	<path class="st0" d="M1.7,207.7l-0.3-0.3H1.2l-0.3,0.3l0.3,0.3h0.3L1.7,207.7z"/>
	<path class="st0" d="M0.8,194.3l-0.3-0.3H0.3L0,194.3l0.3,0.3h0.3L0.8,194.3z"/>
	<path class="st0" d="M0.8,180.7l-0.3-0.3H0.3L0,180.7l0.3,0.3h0.3L0.8,180.7z"/>
	<path class="st0" d="M1.7,167.3L1.4,167H1.2l-0.3,0.3l0.3,0.3h0.3L1.7,167.3z"/>
	<path class="st0" d="M3.7,153.9l-0.3-0.3H3.2l-0.3,0.3l0.3,0.3h0.3L3.7,153.9z"/>
	<path class="st0" d="M6.5,140.7l-0.3-0.3H6l-0.3,0.3L6,141h0.3L6.5,140.7z"/>
	<path class="st0" d="M10.4,127.7l-0.3-0.3H9.9l-0.3,0.3l0.3,0.3h0.3L10.4,127.7z"/>
	<path class="st0" d="M15.2,115l-0.3-0.3h-0.3l-0.3,0.3l0.3,0.3H15L15.2,115z"/>
	<path class="st0" d="M20.8,102.9l-0.3-0.3h-0.3l-0.3,0.3l0.3,0.3h0.3L20.8,102.9z"/>
	<path class="st0" d="M27.4,91l-0.3-0.3h-0.3L26.6,91l0.3,0.3h0.3L27.4,91z"/>
	<path class="st0" d="M34.9,79.7l-0.3-0.3h-0.3l-0.3,0.3l0.3,0.3h0.3L34.9,79.7z"/>
	<path class="st0" d="M43,68.9l-0.3-0.3h-0.3l-0.3,0.3l0.3,0.3h0.3L43,68.9z"/>
	<path class="st0" d="M52,58.7l-0.3-0.3h-0.3l-0.3,0.3l0.3,0.3h0.3L52,58.7z"/>
	<path class="st0" d="M61.6,49.3L61.3,49h-0.3l-0.3,0.3l0.3,0.3h0.3L61.6,49.3z"/>
	<path class="st0" d="M71.9,40.6l-0.3-0.3h-0.3l-0.3,0.3l0.3,0.3h0.3L71.9,40.6z"/>
	<path class="st0" d="M82.7,32.5l-0.3-0.3h-0.3l-0.3,0.3l0.3,0.3h0.3L82.7,32.5z"/>
	<path class="st0" d="M94.2,25.5L94,25.2h-0.3l-0.3,0.3l0.3,0.3H94L94.2,25.5z"/>
	<path class="st0" d="M106.1,19l-0.3-0.3h-0.3l-0.3,0.3l0.3,0.3h0.3L106.1,19z"/>
	<path class="st0" d="M118.6,13.6l-0.3-0.3H118l-0.3,0.3l0.3,0.3h0.3L118.6,13.6z"/>
	<path class="st0" d="M131.3,9L131,8.7h-0.3L130.5,9l0.3,0.3h0.3L131.3,9z"/>
	<path class="st0" d="M144.3,5.4L144,5.1h-0.3l-0.3,0.3l0.3,0.3h0.3L144.3,5.4z"/>
	<path class="st0" d="M157.6,2.7l-0.3-0.3h-0.3l-0.3,0.3l0.3,0.3h0.3L157.6,2.7z"/>
	<path class="st0" d="M171,1.1l-0.3-0.3h-0.3l-0.3,0.3l0.3,0.3h0.3L171,1.1z"/>
	<path class="st0" d="M184.5,0.3L184.2,0H184l-0.3,0.3l0.3,0.3h0.3L184.5,0.3z"/>
	<path class="st0" d="M198,0.6l-0.3-0.3h-0.3l-0.3,0.3l0.3,0.3h0.3L198,0.6z"/>
	<path class="st0" d="M211.4,1.8l-0.3-0.3h-0.3l-0.3,0.3l0.3,0.3h0.3L211.4,1.8z"/>
	<path class="st0" d="M224.7,4.1l-0.3-0.3h-0.3l-0.3,0.3l0.3,0.3h0.3L224.7,4.1z"/>
	<path class="st0" d="M238,7.1l-0.3-0.3h-0.3l-0.3,0.3l0.3,0.3h0.3L238,7.1z"/>
	<path class="st0" d="M250.8,11.3l-0.3-0.3h-0.3l-0.3,0.3l0.3,0.3h0.3L250.8,11.3z"/>
	<path class="st0" d="M263.4,16.2l-0.3-0.3h-0.3l-0.3,0.3l0.3,0.3h0.3L263.4,16.2z"/>
	<path class="st0" d="M275.5,22.1l-0.3-0.3H275l-0.3,0.3l0.3,0.3h0.3L275.5,22.1z"/>
	<path class="st0" d="M287.2,28.9l-0.3-0.3h-0.3l-0.3,0.3l0.3,0.3h0.3L287.2,28.9z"/>
	<path class="st0" d="M298.4,36.4l-0.3-0.3h-0.3l-0.3,0.3l0.3,0.3h0.3L298.4,36.4z"/>
	<path class="st0" d="M309,44.8l-0.3-0.3h-0.3l-0.3,0.3l0.3,0.3h0.3L309,44.8z"/>
	<path class="st0" d="M319,53.9l-0.3-0.3h-0.3l-0.3,0.3l0.3,0.3h0.3L319,53.9z"/>
	<path class="st0" d="M328.2,63.8l-0.3-0.3h-0.3l-0.3,0.3l0.3,0.3h0.3L328.2,63.8z"/>
	<path class="st0" d="M336.9,74.3l-0.3-0.3h-0.3l-0.3,0.3l0.3,0.3h0.3L336.9,74.3z"/>
	<path class="st0" d="M344.7,85.2l-0.3-0.3h-0.3l-0.3,0.3l0.3,0.3h0.3L344.7,85.2z"/>
	<path class="st0" d="M351.6,96.8l-0.3-0.3h-0.3l-0.3,0.3l0.3,0.3h0.3L351.6,96.8z"/>
	<path class="st0" d="M357.8,108.9l-0.3-0.3h-0.3l-0.3,0.3l0.3,0.3h0.3L357.8,108.9z"/>
	<path class="st0" d="M363,121.3l-0.3-0.3h-0.3l-0.3,0.3l0.3,0.3h0.3L363,121.3z"/>
	<path class="st0" d="M367.3,134.2l-0.3-0.3h-0.3l-0.3,0.3l0.3,0.3h0.3L367.3,134.2z"/>
	<path class="st0" d="M370.6,147.3l-0.3-0.3h-0.3l-0.3,0.3l0.3,0.3h0.3L370.6,147.3z"/>
	<path class="st0" d="M373,160.5l-0.3-0.3h-0.3l-0.3,0.3l0.3,0.3h0.3L373,160.5z"/>
	<path class="st0" d="M374.5,174l-0.3-0.3h-0.3l-0.3,0.3l0.3,0.3h0.3L374.5,174z"/>
	<path class="st0" d="M375,187.5l-0.3-0.3h-0.3l-0.3,0.3l0.3,0.3h0.3L375,187.5z"/>
</g>
</svg>
