<?xml version="1.0" encoding="utf-8"?>
<!-- Generator: Adobe Illustrator 24.3.0, SVG Export Plug-In . SVG Version: 6.00 Build 0)  -->
<svg version="1.1" id="Layer_1" xmlns="http://www.w3.org/2000/svg" xmlns:xlink="http://www.w3.org/1999/xlink" x="0px" y="0px"
	 viewBox="0 0 118.8 118.6" style="enable-background:new 0 0 118.8 118.6;" xml:space="preserve">
<style type="text/css">
	.st0{opacity:0.15;fill:#FFFFFF;enable-background:new    ;}
	.st1{fill:#FFC500;}
	.st2{fill:#FFFFFF;}
	.st3{fill:#3E4D77;}
	.st4{fill:#D5DFEB;}
</style>
<g id="Layer_2_1_">
	<g id="Layer_1-2">
		<path class="st0" d="M7.3,75.9L75.9,7.3c9.8-9.8,25.6-9.8,35.4,0l0,0c9.8,9.8,9.8,25.6,0,35.4l-68.6,68.6
			c-9.8,9.8-25.6,9.8-35.4,0l0,0C-2.4,101.5-2.4,85.7,7.3,75.9z"/>
		<rect x="12.8" y="12.3" class="st1" width="20" height="80"/>
		<rect x="74.8" y="23.3" class="st1" width="20" height="70"/>
		<rect x="43.8" y="46.3" class="st2" width="20" height="45"/>
		<path class="st3" d="M105.3,53.3c-3.6,0-6.5-2.9-6.5-6.5s2.9-6.5,6.5-6.5s6.5,2.9,6.5,6.5C111.8,50.4,108.9,53.3,105.3,53.3z
			 M105.3,43.3c-1.9,0-3.5,1.6-3.5,3.5s1.6,3.5,3.5,3.5s3.5-1.6,3.5-3.5S107.2,43.3,105.3,43.3L105.3,43.3z"/>
		<path class="st1" d="M45.3,35.3c-3.6,0-6.5-2.9-6.5-6.5s2.9-6.5,6.5-6.5s6.5,2.9,6.5,6.5l0,0C51.8,32.4,48.9,35.3,45.3,35.3z
			 M45.3,25.3c-1.9,0-3.5,1.6-3.5,3.5s1.6,3.5,3.5,3.5s3.5-1.6,3.5-3.5S47.2,25.3,45.3,25.3L45.3,25.3z"/>
		<circle class="st1" cx="56" cy="101" r="2.8"/>
		<circle class="st1" cx="26" cy="5" r="2.8"/>
		<circle class="st4" cx="115" cy="96" r="2.8"/>
		<circle class="st2" cx="6" cy="30" r="2.8"/>
		<path class="st3" d="M34.8,93.3h-23v-83h23V93.3z M14.8,90.3h17v-77h-17V90.3z"/>
		<path class="st3" d="M65.8,93.8h-23v-49h23V93.8z M45.8,90.8h17v-43h-17V90.8z"/>
		<path class="st3" d="M96.8,94.3h-23v-71h23V94.3z M76.8,91.3h17v-65h-17V91.3z"/>
		<rect x="27.5" y="16.3" class="st2" width="2" height="14"/>
		<rect x="27.5" y="32.3" class="st2" width="2" height="6"/>
		<rect x="27.5" y="40.3" class="st2" width="2" height="2"/>
		<rect x="93.3" y="87.9" class="st2" width="2" height="12.7"/>
		<rect x="93.3" y="102.4" class="st2" width="2" height="5.4"/>
		<rect x="93.3" y="109.6" class="st2" width="2" height="1.8"/>
		<circle class="st2" cx="92.6" cy="85.9" r="26.2"/>
		<circle class="st1" cx="93.5" cy="85.9" r="21.2"/>
		<path class="st3" d="M92.6,108.7c-12.6,0-22.7-10.2-22.7-22.7s10.2-22.7,22.7-22.7c12.6,0,22.7,10.2,22.7,22.7
			C115.3,98.5,105.2,108.7,92.6,108.7z M92.6,66.2c-10.9,0-19.7,8.8-19.7,19.7s8.8,19.7,19.7,19.7s19.7-8.8,19.7-19.7
			C112.3,75.1,103.5,66.2,92.6,66.2L92.6,66.2z"/>
		<path class="st2" d="M90.7,95.4c-0.4,0-0.8-0.1-1.1-0.3l-7.7-5.4c-0.7-0.5-0.8-1.4-0.4-2.1c0.5-0.7,1.4-0.8,2.1-0.4l0,0l6.8,4.8
			l11.1-14.8c0.5-0.7,1.5-0.8,2.1-0.3c0.7,0.5,0.8,1.5,0.3,2.1l0,0L92.2,94.7C91.9,95.1,91.3,95.4,90.7,95.4z"/>
	</g>
</g>
</svg>
